<svg xmlns="http://www.w3.org/2000/svg" xmlns:xlink="http://www.w3.org/1999/xlink" viewBox="0 0 500 500"><defs><clipPath id="freepik--clip-path--inject-1--inject-81"><path d="M227.3,334.35l10.63,6.14c.8.46.7,1.26-.22,1.79l-14.8,8.64a3.46,3.46,0,0,1-3.11.13l-10.63-6.14c-.8-.46-.7-1.26.22-1.79,4.06-2.35,10.74-6.3,14.8-8.64A3.43,3.43,0,0,1,227.3,334.35Z" style="fill:#DB3022"></path></clipPath></defs><!--Make it Rain--><g id="freepik--Floor--inject-1--inject-81"><ellipse id="freepik--floor--inject-1--inject-81" cx="249.53" cy="343.95" rx="228.78" ry="132.09" style="fill:#f5f5f5"></ellipse></g><g id="freepik--Shadows--inject-1--inject-81"><path id="freepik--Shadow--inject-1--inject-81" d="M281.51,331.53a2.2,2.2,0,0,0,.51.3,3.71,3.71,0,0,0,1.15.21c4.7.33,9.47.93,14.1,0s8.83-3.3,13.46-4.09a6.52,6.52,0,0,1,4.49.48c-.08-2.53-3.19-5.25-5-6.72a34.66,34.66,0,0,0-3.69-2.56q-1-.59-1.95-1.14c-.32-.18-1.46-1.06-1.81-1a37.33,37.33,0,0,0,9.87-2.93c3.06-1.56,9.95-6.57,10.85-9.89-2.71-.48-6.78-2.55-9.11-3.73-.66-.34-3,1.28-3.76,1.26a6.39,6.39,0,0,0-2.68.83c-4.76,2.14-10.21,2.12-15.4,1.56s-10.36-1.63-15.58-1.44c-3.76.14-7.33,1.5-11,1.73-2.69.16-5.16-1.7-7.55-2.75-5.62-2.46-12.05-2.05-18.12-1.18-3,.44-6.06,1-9.12,1.31a85.6,85.6,0,0,1-9.2.06c-.77,0,.55,6.78.76,7.38.66,1.88,1.77,4.6,3.56,5.66a7.24,7.24,0,0,0,3.81.66,83.17,83.17,0,0,0,17.77-2.27,2.27,2.27,0,0,1,1.21-.06,2.4,2.4,0,0,1,.86.7c2.36,2.56,5.58,4.13,8.72,5.65a5.37,5.37,0,0,0,1.63.57,4.71,4.71,0,0,0,1.4-.11A33.39,33.39,0,0,0,274.11,315a23.26,23.26,0,0,0,8,4.58.68.68,0,0,0,.32-.05c-1.17.24-2.31.71-3.54.89a16.22,16.22,0,0,1-4.51,0,16.7,16.7,0,0,0,1,2.29c1.56,3.16,3.2,6.41,5.91,8.65A2.43,2.43,0,0,0,281.51,331.53Z" style="fill:#e0e0e0"></path><path id="freepik--shadow--inject-1--inject-81" d="M169.3,429.18l115-66.39a1.32,1.32,0,0,0,0-2.5L215.4,320.5a4.79,4.79,0,0,0-4.33,0l-115,66.38a1.32,1.32,0,0,0,0,2.5L165,429.18A4.79,4.79,0,0,0,169.3,429.18Z" style="fill:#e0e0e0"></path><ellipse id="freepik--shadow--inject-1--inject-81" cx="389.91" cy="302.67" rx="57.67" ry="33.29" style="fill:#e0e0e0"></ellipse><ellipse id="freepik--shadow--inject-1--inject-81" cx="396.41" cy="369.05" rx="31.58" ry="18.23" style="fill:#e0e0e0"></ellipse><path id="freepik--shadow--inject-1--inject-81" d="M333.87,390.12c12.33,7.12,12.33,18.67,0,25.79s-32.33,7.12-44.66,0-12.34-18.67,0-25.79S321.53,383,333.87,390.12Z" style="fill:#e0e0e0"></path><path id="freepik--shadow--inject-1--inject-81" d="M85.43,342.74,34.49,313.32c-.6-.35-.6-.91,0-1.25L116,265a2.37,2.37,0,0,1,2.17,0l50.94,29.42c.6.34.6.9,0,1.25L87.6,342.74A2.44,2.44,0,0,1,85.43,342.74Z" style="fill:#e0e0e0"></path><path id="freepik--shadow--inject-1--inject-81" d="M184.17,298l-50.94-29.42c-.6-.35-.6-.91,0-1.25l72.92-42.07a2.35,2.35,0,0,1,2.16,0l50.94,29.42a.65.65,0,0,1,0,1.24L186.34,298A2.44,2.44,0,0,1,184.17,298Z" style="fill:#e0e0e0"></path></g><g id="freepik--Bags--inject-1--inject-81"><g id="freepik--dark-bag--inject-1--inject-81"><path d="M200,117.28c-2.45-1.42-5.46-1.24-8.48.5-7,4-12.62,15.62-12.62,25.87v24.17a1.1,1.1,0,0,0,2.2,0V143.65c0-9.55,5.17-20.3,11.52-24,2.34-1.35,4.51-1.53,6.29-.5,2.62,1.51,4.12,5.36,4.12,10.54v24.06a1.1,1.1,0,1,0,2.2,0V129.72C205.24,123.73,203.33,119.19,200,117.28Z" style="fill:#37474f"></path><polygon points="254 255.84 247.24 139.67 227.86 128.52 221.51 237.08 254 255.84" style="fill:#DB3022"></polygon><polygon points="254 255.84 247.24 139.67 227.86 128.52 221.51 237.08 254 255.84" style="opacity:0.2"></polygon><polygon points="159.79 167.82 153.43 276.38 221.51 237.08 227.86 128.52 159.79 167.82" style="fill:#DB3022"></polygon><polygon points="159.79 167.82 153.43 276.38 221.51 237.08 227.86 128.52 159.79 167.82" style="opacity:0.30000000000000004"></polygon><polygon points="159.79 167.82 179.16 178.97 185.93 295.14 153.43 276.38 159.79 167.82" style="fill:#DB3022"></polygon><polygon points="159.79 167.82 179.16 178.97 185.93 295.14 153.43 276.38 159.79 167.82" style="opacity:0.15"></polygon><polygon points="185.93 295.14 171.96 275.53 170.22 207.06 168.47 274.34 153.43 276.38 185.93 295.14" style="opacity:0.15"></polygon><path d="M247.23,139.67,179.16,179l6.77,116.17L254,255.84Zm-47.8,42c-1.34.76-2.43.12-2.43-1.43a5.39,5.39,0,0,1,2.43-4.21c1.34-.77,2.43-.14,2.43,1.43A5.34,5.34,0,0,1,199.43,181.69Zm24.13-14c-1.35.76-2.43.13-2.43-1.42a5.38,5.38,0,0,1,2.43-4.22c1.34-.77,2.43-.13,2.43,1.43A5.34,5.34,0,0,1,223.56,167.65Z" style="fill:#DB3022"></path><path d="M219.43,128.32c-2.46-1.41-5.47-1.23-8.49.51-6.95,4-12.61,15.62-12.61,25.87v24.17a1.1,1.1,0,0,0,2.2,0V154.7c0-9.55,5.16-20.3,11.51-24,2.35-1.35,4.52-1.53,6.29-.5,2.62,1.51,4.13,5.35,4.13,10.54v24.06a1.1,1.1,0,0,0,2.2,0V140.77C224.66,134.78,222.75,130.24,219.43,128.32Z" style="fill:#455a64"></path></g><g id="freepik--light-bag--inject-1--inject-81"><path d="M102.63,136.49c-2.81-1.63-6.27-1.42-9.72.57-8,4.6-14.46,17.9-14.46,29.65V194.4a1.26,1.26,0,0,0,2.52,0V166.71c0-11,5.92-23.27,13.19-27.47,2.69-1.55,5.18-1.75,7.21-.57,3,1.73,4.73,6.13,4.73,12.08v27.56a1.26,1.26,0,1,0,2.52,0V150.75C108.62,143.88,106.43,138.68,102.63,136.49Z" style="fill:#37474f"></path><polygon points="164.49 295.25 156.74 162.14 134.54 149.37 127.26 273.75 164.49 295.25" style="fill:#DB3022"></polygon><polygon points="164.49 295.25 156.74 162.14 134.54 149.37 127.26 273.75 164.49 295.25" style="fill:#fff;opacity:0.6000000000000001"></polygon><polygon points="164.49 295.25 156.74 162.14 134.54 149.37 127.26 273.75 164.49 295.25" style="opacity:0.05"></polygon><polygon points="56.54 194.4 49.26 318.79 127.26 273.75 134.54 149.37 56.54 194.4" style="fill:#DB3022"></polygon><polygon points="56.54 194.4 49.26 318.79 127.26 273.75 134.54 149.37 56.54 194.4" style="fill:#fff;opacity:0.30000000000000004"></polygon><polygon points="56.54 194.4 49.26 318.79 127.26 273.75 134.54 149.37 56.54 194.4" style="opacity:0.05"></polygon><polygon points="56.54 194.4 78.74 207.17 86.49 340.28 49.26 318.79 56.54 194.4" style="fill:#DB3022"></polygon><polygon points="56.54 194.4 78.74 207.17 86.49 340.28 49.26 318.79 56.54 194.4" style="fill:#fff;opacity:0.55"></polygon><polygon points="86.49 340.28 70.49 317.82 68.49 239.36 66.49 316.46 49.26 318.79 86.49 340.28" style="opacity:0.05"></polygon><path d="M156.74,162.14l-78,45,7.75,133.11,78-45ZM102,210.29c-1.54.87-2.78.14-2.78-1.63a6.15,6.15,0,0,1,2.78-4.83c1.54-.89,2.79-.16,2.79,1.63A6.1,6.1,0,0,1,102,210.29Zm27.65-16.08c-1.54.87-2.79.14-2.79-1.64a6.16,6.16,0,0,1,2.79-4.82c1.53-.89,2.78-.16,2.78,1.63A6.15,6.15,0,0,1,129.61,194.21Z" style="fill:#DB3022"></path><path d="M156.74,162.14l-78,45,7.75,133.11,78-45ZM102,210.29c-1.54.87-2.78.14-2.78-1.63a6.15,6.15,0,0,1,2.78-4.83c1.54-.89,2.79-.16,2.79,1.63A6.1,6.1,0,0,1,102,210.29Zm27.65-16.08c-1.54.87-2.79.14-2.79-1.64a6.16,6.16,0,0,1,2.79-4.82c1.53-.89,2.78-.16,2.78,1.63A6.15,6.15,0,0,1,129.61,194.21Z" style="fill:#fff;opacity:0.7000000000000001"></path><path d="M124.88,149.14c-2.82-1.62-6.27-1.41-9.73.58-8,4.6-14.45,17.9-14.45,29.65v27.69a1.26,1.26,0,0,0,2.52,0V179.37c0-11,5.92-23.27,13.19-27.47,2.69-1.55,5.18-1.75,7.21-.58,3,1.74,4.73,6.14,4.73,12.09V191a1.26,1.26,0,1,0,2.51,0V163.41C130.86,156.54,128.68,151.34,124.88,149.14Z" style="fill:#455a64"></path></g></g><g id="freepik--Card--inject-1--inject-81"><g id="freepik--card--inject-1--inject-81"><path d="M99.94,384v2.19a2.39,2.39,0,0,0,1.08,1.87l66.89,38.62a2.37,2.37,0,0,0,2.17,0l111.57-64.42a2.37,2.37,0,0,0,1.08-1.87v-2.19a2.4,2.4,0,0,0-1.08-1.88l-66.89-38.61a2.37,2.37,0,0,0-2.17,0L101,382.14A2.43,2.43,0,0,0,99.94,384Z" style="fill:#37474f"></path><path d="M170.08,422l111.57-64.42c.6-.34.6-.9,0-1.25l-66.89-38.61a2.37,2.37,0,0,0-2.17,0L101,382.14a.66.66,0,0,0,0,1.25L167.91,422A2.37,2.37,0,0,0,170.08,422Z" style="fill:#455a64"></path><path d="M169,422.27V427a2.11,2.11,0,0,1-1.08-.26L101,388.08a2.38,2.38,0,0,1-1.09-1.87V384a2.42,2.42,0,0,1,.89-1.74c-.39.35-.32.81.2,1.11L167.92,422A2.11,2.11,0,0,0,169,422.27Z" style="fill:#263238"></path><path d="M101,383.39l22.65,12.86,22.58,13,11.29,6.48,5.65,3.24,2.82,1.62,1.41.81.7.4a1.79,1.79,0,0,0,.66.18,2,2,0,0,0,1.37-.34l1.4-.82,2.82-1.63,5.63-3.27,11.26-6.54,45.16-25.93,22.59-13,22.64-12.87-22.46,13.18-22.52,13.08-45,26.15-11.29,6.48-5.64,3.24-2.83,1.62-1.41.81a2.51,2.51,0,0,1-.83.36,2.74,2.74,0,0,1-.9.06,2.43,2.43,0,0,1-.9-.25l-.72-.42-1.4-.81-2.82-1.64-5.63-3.27L146,409.65l-22.52-13.08Z" style="fill:#455a64"></path><path d="M101,383.39l22.65,12.86,22.58,13,11.29,6.48,5.65,3.24,2.82,1.62,1.41.81.7.4a1.79,1.79,0,0,0,.66.18,2,2,0,0,0,1.37-.34l1.4-.82,2.82-1.63,5.63-3.27,11.26-6.54,45.16-25.93,22.59-13,22.64-12.87-22.46,13.18-22.52,13.08-45,26.15-11.29,6.48-5.64,3.24-2.83,1.62-1.41.81a2.51,2.51,0,0,1-.83.36,2.74,2.74,0,0,1-.9.06,2.43,2.43,0,0,1-.9-.25l-.72-.42-1.4-.81-2.82-1.64-5.63-3.27L146,409.65l-22.52-13.08Z" style="fill:#fff;opacity:0.30000000000000004"></path><g id="freepik--Cards--inject-1--inject-81"><path d="M227.3,334.35l10.63,6.14c.8.46.7,1.26-.22,1.79l-14.8,8.64a3.46,3.46,0,0,1-3.11.13l-10.63-6.14c-.8-.46-.7-1.26.22-1.79,4.06-2.35,10.74-6.3,14.8-8.64A3.43,3.43,0,0,1,227.3,334.35Z" style="fill:#DB3022"></path><g style="clip-path:url(#freepik--clip-path--inject-1--inject-81)"><polygon points="233.17 334.35 232.9 333.76 208.52 347.93 208.8 348.52 233.17 334.35" style="fill:#fff"></polygon><polygon points="228.87 342.9 229.3 342.28 223.88 339.15 223.46 339.77 228.87 342.9" style="fill:#fff"></polygon><polygon points="223.24 346.26 223.67 345.64 218.26 342.52 217.83 343.14 223.24 346.26" style="fill:#fff"></polygon><polygon points="238.6 337.48 238.32 336.89 213.95 351.06 214.23 351.65 238.6 337.48" style="fill:#fff"></polygon></g><path d="M124.72,385.91a7.9,7.9,0,0,1-4.11-1.11c-1.32-.76-2-1.55-2-2.36s.69-1.6,2-2.37a10.23,10.23,0,0,1,1.69-.78,7.32,7.32,0,0,1,1.62-.39.53.53,0,0,1,.3,0,.32.32,0,0,1,.13.15l.29.64c0,.08,0,.13,0,.16a.77.77,0,0,1-.27.07,6.52,6.52,0,0,0-2.14.76c-.78.46-1.17.94-1.15,1.46s.48,1,1.37,1.54a5.39,5.39,0,0,0,2.71.78,5.18,5.18,0,0,0,2.54-.69,3.31,3.31,0,0,0,1.39-1.28.28.28,0,0,1,.13-.15.46.46,0,0,1,.28,0l1.22.18.18,0c.05,0,.06.09,0,.18-.17.59-.88,1.25-2.12,2A8.38,8.38,0,0,1,124.72,385.91Z" style="fill:#DB3022"></path><path d="M132.5,382.3a.93.93,0,0,1-.49-.15l-6.79-3.92c-.17-.09-.26-.19-.26-.29s.08-.19.27-.3l2.89-1.67a5.13,5.13,0,0,1,5.45-.21,2.27,2.27,0,0,1,1,1,1.1,1.1,0,0,1-.15,1.09l3.83.83.2.07c.13.08.12.17,0,.26l-1.27.73a1.23,1.23,0,0,1-.28.12.87.87,0,0,1-.31,0L133,379l-1.36.79,2.25,1.29c.16.1.25.19.25.28s-.09.19-.28.3l-.86.5A1.08,1.08,0,0,1,132.5,382.3Zm-1-4c.43-.25.67-.49.7-.73s-.15-.46-.54-.69a2.22,2.22,0,0,0-1.17-.33,2.48,2.48,0,0,0-1.17.36l-1.36.79,2.29,1.32Z" style="fill:#DB3022"></path><path d="M139.76,378.11a.93.93,0,0,1-.49-.15L132.48,374c-.17-.1-.26-.19-.26-.29s.08-.19.27-.3l4.75-2.74a.94.94,0,0,1,.49-.16,1.14,1.14,0,0,1,.47.16l.42.24c.18.11.27.2.28.28s-.08.18-.27.29l-3.37,2,1.81,1,2.36-1.36a.94.94,0,0,1,.48-.16,1.18,1.18,0,0,1,.48.16l.4.23c.17.1.26.19.27.28s-.08.18-.26.28l-2.36,1.36,1.82,1.05,3.37-1.94a.92.92,0,0,1,.49-.15,1,1,0,0,1,.48.16l.41.24q.27.15.27.27c0,.08-.08.18-.27.28L140.27,378A1.08,1.08,0,0,1,139.76,378.11Z" style="fill:#DB3022"></path><path d="M146.33,374.31a1,1,0,0,1-.49-.14l-6.79-3.92c-.17-.1-.26-.2-.26-.29s.09-.2.27-.3l2.4-1.39a8.22,8.22,0,0,1,3.92-1.18,7.6,7.6,0,0,1,4,1.12c1.33.77,2,1.53,1.91,2.29s-.72,1.52-2,2.27l-2.41,1.38A1,1,0,0,1,146.33,374.31Zm1.62-2.4q1-.59,1-1.2t-1.44-1.41a5.32,5.32,0,0,0-2.44-.83A3.92,3.92,0,0,0,143,369l-1.12.65,5,2.89Z" style="fill:#DB3022"></path><path d="M154.18,369.78a1,1,0,0,1-.49-.15l-6.79-3.92c-.17-.09-.25-.19-.26-.29s.09-.19.27-.3l.86-.49a1,1,0,0,1,.52-.16,1,1,0,0,1,.5.15l6.79,3.92c.17.1.25.19.26.28s-.09.19-.28.3l-.86.5A1.15,1.15,0,0,1,154.18,369.78Z" style="fill:#DB3022"></path><path d="M159.14,366.92a1,1,0,0,1-.49-.15l-5.9-3.4-1.88,1.08a.83.83,0,0,1-.48.15,1,1,0,0,1-.48-.15l-.42-.24c-.18-.11-.27-.2-.28-.28s.08-.18.27-.29l5.65-3.26a1,1,0,0,1,.5-.16,1,1,0,0,1,.49.16l.42.24c.17.1.26.19.26.28s-.09.18-.27.28l-1.88,1.09,5.9,3.4c.17.1.25.19.25.29s-.09.19-.29.3l-.84.49A1.09,1.09,0,0,1,159.14,366.92Z" style="fill:#DB3022"></path><path d="M168.23,360.79a7.85,7.85,0,0,1-4.11-1.11c-1.32-.76-2-1.55-2-2.36s.69-1.6,2-2.37a10.52,10.52,0,0,1,1.68-.78,7.53,7.53,0,0,1,1.63-.39.53.53,0,0,1,.3,0,.29.29,0,0,1,.12.15l.3.64c0,.08,0,.13,0,.16a1.12,1.12,0,0,1-.27.08,6.09,6.09,0,0,0-2.14.76c-.78.45-1.17.93-1.15,1.45s.48,1,1.37,1.54a5.36,5.36,0,0,0,2.71.78,5,5,0,0,0,2.53-.69,3.28,3.28,0,0,0,1.4-1.28.33.33,0,0,1,.13-.15.45.45,0,0,1,.28,0l1.22.18a.54.54,0,0,1,.18.06s.06.08,0,.17c-.16.6-.87,1.25-2.12,2A8.31,8.31,0,0,1,168.23,360.79Z" style="fill:#DB3022"></path><path d="M175.31,357.5a.47.47,0,0,1-.15-.13l-4.1-5.79c-.08-.11-.11-.19-.09-.26s.08-.13.2-.2l.84-.49a.83.83,0,0,1,.35-.11,1.55,1.55,0,0,1,.44.05l10,2.37.22.09c.13.07.12.15,0,.23l-1.39.8a.63.63,0,0,1-.29.1,1,1,0,0,1-.32,0l-1.87-.47-2.79,1.6.84,1.08a.25.25,0,0,1,.06.18.4.4,0,0,1-.19.17l-1.38.8A.38.38,0,0,1,175.31,357.5Zm2.1-4.35-3.42-.88,1.51,2Z" style="fill:#DB3022"></path><path d="M184.19,352.45a1,1,0,0,1-.49-.14l-6.79-3.92c-.17-.1-.25-.2-.26-.29s.09-.2.27-.3l2.9-1.67a5.15,5.15,0,0,1,5.45-.22,2.3,2.3,0,0,1,1,1,1.1,1.1,0,0,1-.15,1.09l3.84.82a.54.54,0,0,1,.19.08c.14.08.13.16,0,.25l-1.28.74a.77.77,0,0,1-.28.11.69.69,0,0,1-.31,0l-3.57-.85-1.37.79,2.25,1.3c.17.09.25.19.26.28s-.09.19-.28.3l-.86.49A1,1,0,0,1,184.19,352.45Zm-1-4c.44-.25.67-.49.7-.72s-.14-.46-.54-.69a2.22,2.22,0,0,0-1.17-.33,2.57,2.57,0,0,0-1.17.35l-1.36.79,2.29,1.32Z" style="fill:#DB3022"></path><path d="M191.45,348.26a1,1,0,0,1-.49-.14l-6.79-3.92c-.17-.1-.26-.2-.26-.29s.09-.2.27-.3l2.4-1.39A8.25,8.25,0,0,1,190.5,341a7.48,7.48,0,0,1,4,1.12c1.33.77,2,1.53,1.92,2.29s-.73,1.52-2,2.26L192,348.1A1,1,0,0,1,191.45,348.26Zm1.63-2.4c.68-.39,1-.79.95-1.2s-.52-.89-1.44-1.42a5.37,5.37,0,0,0-2.43-.82,3.93,3.93,0,0,0-2.09.55l-1.12.65,5,2.89Z" style="fill:#DB3022"></path><g style="opacity:0.15"><path d="M124.72,385.91a7.9,7.9,0,0,1-4.11-1.11c-1.32-.76-2-1.55-2-2.36s.69-1.6,2-2.37a10.23,10.23,0,0,1,1.69-.78,7.32,7.32,0,0,1,1.62-.39.53.53,0,0,1,.3,0,.32.32,0,0,1,.13.15l.29.64c0,.08,0,.13,0,.16a.77.77,0,0,1-.27.07,6.52,6.52,0,0,0-2.14.76c-.78.46-1.17.94-1.15,1.46s.48,1,1.37,1.54a5.39,5.39,0,0,0,2.71.78,5.18,5.18,0,0,0,2.54-.69,3.31,3.31,0,0,0,1.39-1.28.28.28,0,0,1,.13-.15.46.46,0,0,1,.28,0l1.22.18.18,0c.05,0,.06.09,0,.18-.17.59-.88,1.25-2.12,2A8.38,8.38,0,0,1,124.72,385.91Z"></path><path d="M132.5,382.3a.93.93,0,0,1-.49-.15l-6.79-3.92c-.17-.09-.26-.19-.26-.29s.08-.19.27-.3l2.89-1.67a5.13,5.13,0,0,1,5.45-.21,2.27,2.27,0,0,1,1,1,1.1,1.1,0,0,1-.15,1.09l3.83.83.2.07c.13.08.12.17,0,.26l-1.27.73a1.23,1.23,0,0,1-.28.12.87.87,0,0,1-.31,0L133,379l-1.36.79,2.25,1.29c.16.1.25.19.25.28s-.09.19-.28.3l-.86.5A1.08,1.08,0,0,1,132.5,382.3Zm-1-4c.43-.25.67-.49.7-.73s-.15-.46-.54-.69a2.22,2.22,0,0,0-1.17-.33,2.48,2.48,0,0,0-1.17.36l-1.36.79,2.29,1.32Z"></path><path d="M139.76,378.11a.93.93,0,0,1-.49-.15L132.48,374c-.17-.1-.26-.19-.26-.29s.08-.19.27-.3l4.75-2.74a.94.94,0,0,1,.49-.16,1.14,1.14,0,0,1,.47.16l.42.24c.18.11.27.2.28.28s-.08.18-.27.29l-3.37,2,1.81,1,2.36-1.36a.94.94,0,0,1,.48-.16,1.18,1.18,0,0,1,.48.16l.4.23c.17.1.26.19.27.28s-.08.18-.26.28l-2.36,1.36,1.82,1.05,3.37-1.94a.92.92,0,0,1,.49-.15,1,1,0,0,1,.48.16l.41.24q.27.15.27.27c0,.08-.08.18-.27.28L140.27,378A1.08,1.08,0,0,1,139.76,378.11Z"></path><path d="M146.33,374.31a1,1,0,0,1-.49-.14l-6.79-3.92c-.17-.1-.26-.2-.26-.29s.09-.2.27-.3l2.4-1.39a8.22,8.22,0,0,1,3.92-1.18,7.6,7.6,0,0,1,4,1.12c1.33.77,2,1.53,1.91,2.29s-.72,1.52-2,2.27l-2.41,1.38A1,1,0,0,1,146.33,374.31Zm1.62-2.4q1-.59,1-1.2t-1.44-1.41a5.32,5.32,0,0,0-2.44-.83A3.92,3.92,0,0,0,143,369l-1.12.65,5,2.89Z"></path><path d="M154.18,369.78a1,1,0,0,1-.49-.15l-6.79-3.92c-.17-.09-.25-.19-.26-.29s.09-.19.27-.3l.86-.49a1,1,0,0,1,.52-.16,1,1,0,0,1,.5.15l6.79,3.92c.17.1.25.19.26.28s-.09.19-.28.3l-.86.5A1.15,1.15,0,0,1,154.18,369.78Z"></path><path d="M159.14,366.92a1,1,0,0,1-.49-.15l-5.9-3.4-1.88,1.08a.83.83,0,0,1-.48.15,1,1,0,0,1-.48-.15l-.42-.24c-.18-.11-.27-.2-.28-.28s.08-.18.27-.29l5.65-3.26a1,1,0,0,1,.5-.16,1,1,0,0,1,.49.16l.42.24c.17.1.26.19.26.28s-.09.18-.27.28l-1.88,1.09,5.9,3.4c.17.1.25.19.25.29s-.09.19-.29.3l-.84.49A1.09,1.09,0,0,1,159.14,366.92Z"></path><path d="M168.23,360.79a7.85,7.85,0,0,1-4.11-1.11c-1.32-.76-2-1.55-2-2.36s.69-1.6,2-2.37a10.52,10.52,0,0,1,1.68-.78,7.53,7.53,0,0,1,1.63-.39.53.53,0,0,1,.3,0,.29.29,0,0,1,.12.15l.3.64c0,.08,0,.13,0,.16a1.12,1.12,0,0,1-.27.08,6.09,6.09,0,0,0-2.14.76c-.78.45-1.17.93-1.15,1.45s.48,1,1.37,1.54a5.36,5.36,0,0,0,2.71.78,5,5,0,0,0,2.53-.69,3.28,3.28,0,0,0,1.4-1.28.33.33,0,0,1,.13-.15.45.45,0,0,1,.28,0l1.22.18a.54.54,0,0,1,.18.06s.06.08,0,.17c-.16.6-.87,1.25-2.12,2A8.31,8.31,0,0,1,168.23,360.79Z"></path><path d="M175.31,357.5a.47.47,0,0,1-.15-.13l-4.1-5.79c-.08-.11-.11-.19-.09-.26s.08-.13.2-.2l.84-.49a.83.83,0,0,1,.35-.11,1.55,1.55,0,0,1,.44.05l10,2.37.22.09c.13.07.12.15,0,.23l-1.39.8a.63.63,0,0,1-.29.1,1,1,0,0,1-.32,0l-1.87-.47-2.79,1.6.84,1.08a.25.25,0,0,1,.06.18.4.4,0,0,1-.19.17l-1.38.8A.38.38,0,0,1,175.31,357.5Zm2.1-4.35-3.42-.88,1.51,2Z"></path><path d="M184.19,352.45a1,1,0,0,1-.49-.14l-6.79-3.92c-.17-.1-.25-.2-.26-.29s.09-.2.27-.3l2.9-1.67a5.15,5.15,0,0,1,5.45-.22,2.3,2.3,0,0,1,1,1,1.1,1.1,0,0,1-.15,1.09l3.84.82a.54.54,0,0,1,.19.08c.14.08.13.16,0,.25l-1.28.74a.77.77,0,0,1-.28.11.69.69,0,0,1-.31,0l-3.57-.85-1.37.79,2.25,1.3c.17.09.25.19.26.28s-.09.19-.28.3l-.86.49A1,1,0,0,1,184.19,352.45Zm-1-4c.44-.25.67-.49.7-.72s-.14-.46-.54-.69a2.22,2.22,0,0,0-1.17-.33,2.57,2.57,0,0,0-1.17.35l-1.36.79,2.29,1.32Z"></path><path d="M191.45,348.26a1,1,0,0,1-.49-.14l-6.79-3.92c-.17-.1-.26-.2-.26-.29s.09-.2.27-.3l2.4-1.39A8.25,8.25,0,0,1,190.5,341a7.48,7.48,0,0,1,4,1.12c1.33.77,2,1.53,1.92,2.29s-.73,1.52-2,2.26L192,348.1A1,1,0,0,1,191.45,348.26Zm1.63-2.4c.68-.39,1-.79.95-1.2s-.52-.89-1.44-1.42a5.37,5.37,0,0,0-2.43-.82,3.93,3.93,0,0,0-2.09.55l-1.12.65,5,2.89Z"></path></g><path d="M169.79,400.32l4.25-2.45a2,2,0,0,1,1.86-.08l1,.56c.48.28.42.76-.13,1.08l-4.25,2.45a2,2,0,0,1-1.86.07l-1-.56C169.18,401.12,169.24,400.64,169.79,400.32Z" style="fill:#DB3022"></path><path d="M160.43,405.72l4.24-2.45a2.08,2.08,0,0,1,1.86-.08l1,.57c.48.27.42.75-.13,1.07l-4.25,2.45a2,2,0,0,1-1.86.08l-1-.56C159.81,406.52,159.87,406,160.43,405.72Z" style="fill:#DB3022"></path><path d="M220.79,378.67l-52.86,30.52c-.92.53-1,1.33-.22,1.79l1.17.68a3.46,3.46,0,0,0,3.11-.13L224.84,381c.92-.53,1-1.33.23-1.79l-1.18-.68A3.47,3.47,0,0,0,220.79,378.67Z" style="fill:#DB3022"></path><g style="opacity:0.30000000000000004"><path d="M169.79,400.32l4.25-2.45a2,2,0,0,1,1.86-.08l1,.56c.48.28.42.76-.13,1.08l-4.25,2.45a2,2,0,0,1-1.86.07l-1-.56C169.18,401.12,169.24,400.64,169.79,400.32Z"></path><path d="M160.43,405.72l4.24-2.45a2.08,2.08,0,0,1,1.86-.08l1,.57c.48.27.42.75-.13,1.07l-4.25,2.45a2,2,0,0,1-1.86.08l-1-.56C159.81,406.52,159.87,406,160.43,405.72Z"></path><path d="M220.79,378.67l-52.86,30.52c-.92.53-1,1.33-.22,1.79l1.17.68a3.46,3.46,0,0,0,3.11-.13L224.84,381c.92-.53,1-1.33.23-1.79l-1.18-.68A3.47,3.47,0,0,0,220.79,378.67Z"></path></g><path d="M149.77,400.86l.19-.12a2.44,2.44,0,0,1,2.17,0l3.12,1.81a.67.67,0,0,1,0,1.27l-.17.1a2.33,2.33,0,0,1-2.15,0l-3.18-1.84C149.17,401.76,149.17,401.2,149.77,400.86Z" style="fill:#fafafa"></path><path d="M155.37,397.64l.19-.11a2.44,2.44,0,0,1,2.17,0l3.12,1.8a.68.68,0,0,1,0,1.28l-.16.1a2.3,2.3,0,0,1-2.15,0l-3.18-1.84C154.77,398.55,154.77,398,155.37,397.64Z" style="fill:#fafafa"></path><path d="M161,394.43l.2-.11a2.37,2.37,0,0,1,2.17,0l3.12,1.8a.67.67,0,0,1,0,1.27l-.16.1a2.33,2.33,0,0,1-2.15,0L161,395.68A.66.66,0,0,1,161,394.43Z" style="fill:#fafafa"></path><path d="M166.56,391.22l.2-.12a2.41,2.41,0,0,1,2.16,0l3.13,1.8a.68.68,0,0,1,0,1.28l-.16.1a2.3,2.3,0,0,1-2.15,0l-3.19-1.84A.65.65,0,0,1,166.56,391.22Z" style="fill:#fafafa"></path><path d="M175.88,385.78l.19-.11a2.37,2.37,0,0,1,2.17,0l3.12,1.8a.68.68,0,0,1,0,1.27l-.17.1a2.33,2.33,0,0,1-2.15,0L175.88,387C175.28,386.69,175.28,386.13,175.88,385.78Z" style="fill:#fafafa"></path><path d="M181.48,382.57l.19-.12a2.44,2.44,0,0,1,2.17,0l3.12,1.81a.68.68,0,0,1,0,1.27l-.17.1a2.33,2.33,0,0,1-2.15,0l-3.18-1.84C180.88,383.47,180.88,382.91,181.48,382.57Z" style="fill:#fafafa"></path><path d="M187.07,379.35l.2-.11a2.37,2.37,0,0,1,2.17,0l3.12,1.8a.68.68,0,0,1,0,1.28l-.16.1a2.33,2.33,0,0,1-2.15,0l-3.19-1.84A.66.66,0,0,1,187.07,379.35Z" style="fill:#fafafa"></path><path d="M192.67,376.14l.2-.12a2.41,2.41,0,0,1,2.16,0l3.13,1.81a.68.68,0,0,1,0,1.27l-.16.1a2.33,2.33,0,0,1-2.15,0l-3.19-1.84C192.07,377,192.07,376.48,192.67,376.14Z" style="fill:#fafafa"></path><path d="M202,370.7l.19-.11a2.37,2.37,0,0,1,2.17,0l3.12,1.8a.68.68,0,0,1,0,1.28l-.17.1a2.3,2.3,0,0,1-2.15,0L202,372C201.39,371.61,201.39,371.05,202,370.7Z" style="fill:#fafafa"></path><path d="M207.59,367.49l.19-.11a2.37,2.37,0,0,1,2.17,0l3.12,1.8a.68.68,0,0,1,0,1.27l-.17.1a2.33,2.33,0,0,1-2.15,0l-3.18-1.84C207,368.39,207,367.83,207.59,367.49Z" style="fill:#fafafa"></path><path d="M213.18,364.27l.2-.11a2.44,2.44,0,0,1,2.17,0l3.12,1.8a.68.68,0,0,1,0,1.28l-.16.1a2.3,2.3,0,0,1-2.15,0l-3.19-1.84A.66.66,0,0,1,213.18,364.27Z" style="fill:#fafafa"></path><path d="M218.78,361.06l.2-.11a2.35,2.35,0,0,1,2.16,0l3.13,1.8a.68.68,0,0,1,0,1.27l-.16.1a2.33,2.33,0,0,1-2.15,0l-3.19-1.84A.66.66,0,0,1,218.78,361.06Z" style="fill:#fafafa"></path><path d="M228.1,355.63l.19-.12a2.44,2.44,0,0,1,2.17,0l3.12,1.8a.68.68,0,0,1,0,1.28l-.17.1a2.3,2.3,0,0,1-2.15,0l-3.18-1.83C227.5,356.53,227.5,356,228.1,355.63Z" style="fill:#fafafa"></path><path d="M233.7,352.41l.19-.11a2.37,2.37,0,0,1,2.17,0l3.12,1.8a.68.68,0,0,1,0,1.28l-.17.09a2.3,2.3,0,0,1-2.15,0l-3.18-1.84C233.1,353.32,233.1,352.76,233.7,352.41Z" style="fill:#fafafa"></path><path d="M239.29,349.2l.2-.12a2.44,2.44,0,0,1,2.17,0l3.12,1.81a.67.67,0,0,1,0,1.27l-.16.1a2.33,2.33,0,0,1-2.15,0l-3.19-1.84A.66.66,0,0,1,239.29,349.2Z" style="fill:#fafafa"></path><path d="M244.89,346l.2-.11a2.35,2.35,0,0,1,2.16,0l3.13,1.8a.68.68,0,0,1,0,1.28l-.16.1a2.3,2.3,0,0,1-2.15,0l-3.19-1.84C244.29,346.89,244.29,346.33,244.89,346Z" style="fill:#fafafa"></path></g></g></g><g id="freepik--Coins--inject-1--inject-81"><g id="freepik--coins--inject-1--inject-81"><path d="M424.48,363.59a17.68,17.68,0,0,0-6.56-6.06c-10.71-6.19-28.08-6.19-38.79,0a17.6,17.6,0,0,0-6.56,6.06h-1.48v5.6h0c.2,3.9,2.86,7.76,8,10.74,10.71,6.18,28.08,6.18,38.79,0,5.16-3,7.84-6.84,8-10.74h0v-5.6Z" style="fill:#DB3022"></path><g style="opacity:0.25"><path d="M424.48,363.59a17.68,17.68,0,0,0-6.56-6.06c-10.71-6.19-28.08-6.19-38.79,0a17.6,17.6,0,0,0-6.56,6.06h-1.48v5.6h0c.2,3.9,2.86,7.76,8,10.74,10.71,6.18,28.08,6.18,38.79,0,5.16-3,7.84-6.84,8-10.74h0v-5.6Z"></path></g><path d="M398.53,352.89c-7,0-14,1.54-19.4,4.64a17.6,17.6,0,0,0-6.56,6.06h-1.48v5.6h0c.2,3.9,2.86,7.76,8,10.74,5.35,3.09,12.37,4.64,19.4,4.64Z" style="opacity:0.1"></path><path d="M383.54,355.46a29.26,29.26,0,0,0-4.41,2.07,17.6,17.6,0,0,0-6.56,6.06h-1.48v5.6h0c.2,3.9,2.86,7.76,8,10.74a29.22,29.22,0,0,0,4.41,2.06Z" style="opacity:0.1"></path><path d="M413.51,355.46a29.26,29.26,0,0,1,4.41,2.07,17.68,17.68,0,0,1,6.56,6.06H426v5.6h0c-.2,3.9-2.89,7.76-8,10.74a29.22,29.22,0,0,1-4.41,2.06Z" style="fill:#DB3022;opacity:0.5"></path><path d="M417.92,352.39c-10.71-6.19-28.08-6.19-38.79,0s-10.72,16.21,0,22.4,28.08,6.18,38.79,0S428.64,358.57,417.92,352.39Z" style="fill:#DB3022"></path><path d="M417.92,352.39c-10.71-6.19-28.08-6.19-38.79,0s-10.72,16.21,0,22.4,28.08,6.18,38.79,0S428.64,358.57,417.92,352.39Z" style="opacity:0.2"></path><path d="M411.16,356.49a30.91,30.91,0,0,0-25.27,0c-3.59,1.84-5.57,4.36-5.57,7.1s2,5.26,5.57,7.1a30.91,30.91,0,0,0,25.27,0c3.59-1.84,5.56-4.36,5.56-7.1S414.75,358.33,411.16,356.49Z" style="fill:#DB3022"></path><path d="M411.16,356.49a30.91,30.91,0,0,0-25.27,0c-3.59,1.84-5.57,4.36-5.57,7.1s2,5.26,5.57,7.1a30.91,30.91,0,0,0,25.27,0c3.59-1.84,5.56-4.36,5.56-7.1S414.75,358.33,411.16,356.49Z" style="opacity:0.4"></path><path d="M417.33,353.43c-5-2.89-11.69-4.49-18.81-4.49s-13.79,1.6-18.79,4.49c-4.8,2.76-7.44,6.37-7.44,10.16s2.64,7.4,7.44,10.17c5,2.88,11.67,4.47,18.79,4.47s13.8-1.59,18.81-4.47c4.79-2.77,7.44-6.38,7.44-10.17S422.12,356.19,417.33,353.43Zm-6.17,17.26a30.91,30.91,0,0,1-25.27,0c-3.59-1.84-5.57-4.36-5.57-7.1s2-5.26,5.57-7.1a30.91,30.91,0,0,1,25.27,0c3.59,1.84,5.56,4.36,5.56,7.1S414.75,368.85,411.16,370.69Z" style="fill:#DB3022"></path><ellipse cx="398.52" cy="363.59" rx="17.25" ry="8.85" style="opacity:0.2"></ellipse><ellipse cx="398.52" cy="363.59" rx="17.25" ry="8.85" style="fill:#DB3022"></ellipse><ellipse cx="398.52" cy="363.59" rx="17.25" ry="8.85" style="opacity:0.6000000000000001"></ellipse><path d="M410.73,359.67c-6.74-3.46-17.67-3.46-24.41,0-2.78,1.43-4.41,3.23-4.9,5.09.49,1.86,2.12,3.66,4.9,5.09,6.74,3.46,17.67,3.46,24.41,0,2.78-1.43,4.41-3.23,4.89-5.09C415.14,362.9,413.51,361.1,410.73,359.67Z" style="fill:#DB3022"></path><path d="M410.73,359.67c-6.74-3.46-17.67-3.46-24.41,0-2.78,1.43-4.41,3.23-4.9,5.09.49,1.86,2.12,3.66,4.9,5.09,6.74,3.46,17.67,3.46,24.41,0,2.78-1.43,4.41-3.23,4.89-5.09C415.14,362.9,413.51,361.1,410.73,359.67Z" style="opacity:0.5"></path><polygon points="400.16 357.46 400.16 359.99 399.3 360.9 397.7 362.58 397.7 359.94 400.16 357.46" style="fill:#DB3022"></polygon><polygon points="400.16 357.46 400.16 359.99 399.3 360.9 397.7 362.58 397.7 359.94 400.16 357.46" style="opacity:0.30000000000000004"></polygon><path d="M397.7,359.94v1.49a13.65,13.65,0,0,1-2.46.7,2.59,2.59,0,0,1-1.05,0,2.37,2.37,0,0,1-.5-.2c-.61-.37-.71-.91.45-1.58A4.09,4.09,0,0,1,397.7,359.94Z" style="fill:#DB3022"></path><path d="M397.7,359.94v1.49a13.65,13.65,0,0,1-2.46.7,2.59,2.59,0,0,1-1.05,0,2.37,2.37,0,0,1-.5-.2c-.61-.37-.71-.91.45-1.58A4.09,4.09,0,0,1,397.7,359.94Z" style="opacity:0.45"></path><path d="M409.15,367.13v2.18l-2.77,1.6-2-1.19a10.4,10.4,0,0,1-7.93.36V367.9l1.26-1.25-1.26.34a8.07,8.07,0,0,1-6.17-.7c-1.24-.72-1.82-1.5-1.82-2.31v-2.12l.23-.93-.76-.44V358.3l2.05,1.19a3.16,3.16,0,0,0-1.52,2.34v0c0,.78.61,1.55,1.82,2.24,2.69,1.56,5.36,1,7.8.26,2.27-.74,3.92-1.61,5.23-.85.82.47.57,1-.34,1.57a4.56,4.56,0,0,1-3.9.22l-2.62,2.6a10.27,10.27,0,0,0,1.45.42,10.83,10.83,0,0,0,6.48-.78l2,1.18Z" style="fill:#DB3022"></path><path d="M388.42,361.83v0c0,.78.61,1.55,1.82,2.24,2.69,1.56,5.36,1,7.8.26,2.27-.74,3.92-1.61,5.23-.85.82.47.57,1-.34,1.57a4.56,4.56,0,0,1-3.9.22l-2.62,2.6a10.27,10.27,0,0,0,1.45.42,10.83,10.83,0,0,0,6.48-.78l2,1.18,2.77-1.59v2.18l-2.77,1.6-2-1.19a10.4,10.4,0,0,1-7.93.36V367.9l1.26-1.25-1.26.34a8.07,8.07,0,0,1-6.17-.7c-1.24-.72-1.82-1.5-1.82-2.31v-2.12l.23-.93" style="opacity:0.35000000000000003"></path><path d="M387.89,358.3v2.19l.76.44h0a4.47,4.47,0,0,1,1.3-1.44Z" style="opacity:0.45"></path><path d="M408.69,365.7a2.68,2.68,0,0,1-.2,1l-1.39-.8a2.71,2.71,0,0,0,1.57-2.1C408.68,364.44,408.69,365.64,408.69,365.7Z" style="fill:#DB3022"></path><g style="opacity:0.30000000000000004"><path d="M408.69,365.7a2.68,2.68,0,0,1-.2,1l-1.39-.8a2.71,2.71,0,0,0,1.57-2.1C408.68,364.44,408.69,365.64,408.69,365.7Z"></path></g><path d="M408.69,366.86l-1.59-.92a2.69,2.69,0,0,0,1.59-2.42,1.5,1.5,0,0,0,0-.22c-.06-.75-.62-1.48-1.77-2.14h0a7.24,7.24,0,0,0-3.68-1h-.35l-.33,0a2.66,2.66,0,0,0-.28,0h-.12a1.46,1.46,0,0,0-.22,0,14.54,14.54,0,0,0-1.79.37l-.84.24-1.15.38-.44.15a12.86,12.86,0,0,1-2.46.7,2.23,2.23,0,0,1-1.55-.25c-.61-.35-.71-.89.45-1.57a4.09,4.09,0,0,1,3.56-.37l2.46-2.48a10.54,10.54,0,0,0-7.43.41l-2.05-1.18-2.79,1.62,2.05,1.17a3.19,3.19,0,0,0-1.52,2.36v0c0,.79.6,1.55,1.82,2.25,2.69,1.55,5.36,1,7.8.25,2.27-.74,3.92-1.61,5.23-.86.82.48.57,1-.34,1.57a4.49,4.49,0,0,1-3.9.23l-2.62,2.6a10.54,10.54,0,0,0,1.44.42,10,10,0,0,0,2.53.19,11.58,11.58,0,0,0,3.95-1l2.05,1.19,2.77-1.6Z" style="fill:#DB3022"></path><polygon points="404.33 367.54 404.33 369.72 406.38 370.91 406.38 368.72 404.33 367.54" style="fill:#DB3022"></polygon><polygon points="404.33 367.54 404.33 369.72 406.38 370.91 406.38 368.72 404.33 367.54" style="opacity:0.45"></polygon><polygon points="387.89 358.31 390.68 356.69 392.73 357.87 390.7 357.02 387.89 358.31" style="fill:#f5f5f5"></polygon><path d="M394.14,360.31a4.09,4.09,0,0,1,3.56-.37l2.46-2.48-2.46,2.23A3.74,3.74,0,0,0,394.14,360.31Z" style="fill:#f5f5f5"></path><path d="M396.41,367.9a10.54,10.54,0,0,0,1.44.42,10,10,0,0,0,2.53.19,9,9,0,0,1-3.56-.71l2.21-2.5Z" style="fill:#f5f5f5"></path><polygon points="404.33 367.54 406.38 368.46 409.15 367.13 406.38 368.72 404.33 367.54" style="fill:#f5f5f5"></polygon><path d="M379.93,353.79c7.27-4.41,18.59-4.85,18.59-4.85-7.12,0-13.79,1.6-18.79,4.49-4.8,2.76-7.44,6.37-7.44,10.16C372.29,363.59,372.55,358.28,379.93,353.79Z" style="fill:#f5f5f5"></path><path d="M396.41,379.38c7.71.34,15.62-1.19,21.51-4.59,6.13-3.54,8.76-8.34,7.87-13,0,0,1.15,7.53-8.33,12.68S396.41,379.38,396.41,379.38Z" style="fill:#f5f5f5"></path><g style="opacity:0.15"><path d="M374.53,357.72a18,18,0,0,1,5.2-4.29c.34-.2.69-.39,1-.58h0l-.88-.89-.76.43a19.09,19.09,0,0,0-5.45,4.48h0l.86.85Z" style="fill:#fff"></path><path d="M405.61,377.69a45.37,45.37,0,0,1-7.09.55c-1.23,0-2.43-.05-3.62-.15h0l1.27,1.28h0a46.91,46.91,0,0,0,10.48-.65l-1-1Z" style="fill:#fff"></path><path d="M381.39,364.58c-.53-2.42.89-4.93,4.25-6.87L385,357l-.05,0c-.27.16-.52.33-.76.5s-.25.17-.37.26-.38.29-.56.44-.29.24-.42.37-.28.26-.41.4-.28.3-.41.45l-.31.38a5.91,5.91,0,0,0-.35.52l-.22.36a6.11,6.11,0,0,0-.27.58,3.49,3.49,0,0,0-.15.34c-.08.22-.13.45-.19.68s-.05.18-.07.27a5.62,5.62,0,0,0-.08.92Z" style="fill:#fff"></path><path d="M400.32,372.39A29.07,29.07,0,0,1,387,370.14l1.72,1.72h0c.65.22,1.32.41,2,.59l.47.12c.71.16,1.43.31,2.18.43h0c.72.11,1.45.19,2.19.25l.65.05c.7.05,1.41.08,2.12.08h.18c.57,0,1.13,0,1.69,0h.18l.81-.06Z" style="fill:#fff"></path><path d="M417.33,353.43c4.79,2.77,7.44,6.37,7.44,10.16a7.85,7.85,0,0,1-.09,1.19l1,1c1.16-4.76-1.44-9.76-7.76-13.41a33.43,33.43,0,0,0-9.14-3.49l1.66,1.66A31.16,31.16,0,0,1,417.33,353.43Z" style="fill:#fff"></path><path d="M398.52,348.94c.55,0,1.09,0,1.64,0L399,347.76h0a46.23,46.23,0,0,0-7.07.46l1.07,1.06A46,46,0,0,1,398.52,348.94Z" style="fill:#fff"></path><path d="M417.39,373.72l.86.87a19.34,19.34,0,0,0,4.24-3.29h0l-.84-.84A19.41,19.41,0,0,1,417.39,373.72Z" style="fill:#fff"></path><path d="M415.68,364.49a7.18,7.18,0,0,1-3.22,4.3l.68.68.3-.21.17-.13c.29-.23.55-.46.8-.7l.19-.19c.22-.23.43-.45.61-.68l.15-.2a6.75,6.75,0,0,0,.44-.65c.05-.08.11-.17.15-.25a8.08,8.08,0,0,0,.35-.73c0-.1.07-.2.1-.29s0-.12.05-.18Z" style="fill:#fff"></path><path d="M397.48,353.82l.92.92a30.6,30.6,0,0,1,8.71,1.18l-1.32-1.32-.18-.05c-.35-.08-.71-.14-1.08-.21l-.63-.12-1-.14-.73-.1-.94-.07c-.29,0-.58-.06-.87-.07l-.67,0c-.38,0-.75,0-1.13,0S397.83,353.81,397.48,353.82Z" style="fill:#fff"></path><path d="M408,377.24l1,1a34.86,34.86,0,0,0,4.39-1.32l-.93-.92A35.37,35.37,0,0,1,408,377.24Z" style="fill:#fff"></path><path d="M386.92,350.47l-1-1a32.39,32.39,0,0,0-4.18,1.54l.91.9A31.91,31.91,0,0,1,386.92,350.47Z" style="fill:#fff"></path><path d="M387.51,356.78a23.13,23.13,0,0,1,4.36-1.36l-.78-.78H391a23.33,23.33,0,0,0-4.23,1.42Z" style="fill:#fff"></path><path d="M407.57,371.12a27.64,27.64,0,0,1-4.69,1l.85.84.39-.07c.59-.1,1.17-.22,1.72-.35l.52-.12c.61-.16,1.21-.33,1.79-.52l.17-.05Z" style="fill:#fff"></path><path d="M402.08,349.07c1.11.08,2.21.21,3.28.38L404,348.07c-1.05-.13-2.11-.21-3.17-.26h0l1.27,1.26Z" style="fill:#fff"></path><path d="M424.54,368.63l-.88-.88a9.94,9.94,0,0,1-1.16,1.74h0l.86.86h0A13.58,13.58,0,0,0,424.54,368.63Z" style="fill:#fff"></path><path d="M411.16,356.49a22.18,22.18,0,0,0-2.84-1.18h0L410,357c.25.12.51.22.75.35,2.92,1.5,4.56,3.4,4.95,5.35l1,1s0,0,0-.08v0C416.72,360.85,414.74,358.33,411.16,356.49Z" style="fill:#fff"></path><path d="M379.73,373.76c-4.07-2.35-6.59-5.3-7.25-8.44l-1.38-1.38c.15,3.94,2.83,7.85,8,10.85a30.84,30.84,0,0,0,5.17,2.35L382.16,375A25.1,25.1,0,0,1,379.73,373.76Z" style="fill:#fff"></path><path d="M385.13,376.16l1.79,1.79h0c1.21.32,2.46.59,3.72.82l-1.51-1.52A35,35,0,0,1,385.13,376.16Z" style="fill:#fff"></path><path d="M372.75,360.86l-.92-.92h0a9.13,9.13,0,0,0-.63,2.28l1.1,1.11A8.47,8.47,0,0,1,372.75,360.86Z" style="fill:#fff"></path></g><path d="M426.12,355.88a17.84,17.84,0,0,0-6.56-6.06c-10.71-6.18-28.08-6.18-38.8,0a17.81,17.81,0,0,0-6.55,6.06h-1.48v5.61h0c.2,3.9,2.86,7.76,8,10.73,10.72,6.19,28.09,6.19,38.8,0,5.15-3,7.84-6.83,8-10.73h0v-5.61Z" style="fill:#DB3022"></path><g style="opacity:0.25"><path d="M426.12,355.88a17.84,17.84,0,0,0-6.56-6.06c-10.71-6.18-28.08-6.18-38.8,0a17.81,17.81,0,0,0-6.55,6.06h-1.48v5.61h0c.2,3.9,2.86,7.76,8,10.73,10.72,6.19,28.09,6.19,38.8,0,5.15-3,7.84-6.83,8-10.73h0v-5.61Z"></path></g><path d="M400.16,345.18c-7,0-14,1.55-19.4,4.64a17.73,17.73,0,0,0-6.55,6.06h-1.48v5.61h0c.2,3.9,2.86,7.76,8,10.73,5.36,3.1,12.38,4.64,19.4,4.64Z" style="opacity:0.1"></path><path d="M385.18,347.76a29.8,29.8,0,0,0-4.42,2.06,17.73,17.73,0,0,0-6.55,6.06h-1.48v5.61h0c.2,3.9,2.86,7.76,8,10.73a30.88,30.88,0,0,0,4.42,2.07Z" style="opacity:0.1"></path><path d="M415.15,347.76a29.22,29.22,0,0,1,4.41,2.06,17.73,17.73,0,0,1,6.55,6.06h1.49v5.61h0c-.2,3.9-2.89,7.76-8,10.73a30.26,30.26,0,0,1-4.41,2.07Z" style="fill:#DB3022;opacity:0.5"></path><path d="M419.56,344.69c-10.71-6.19-28.08-6.19-38.8,0s-10.71,16.21,0,22.4,28.09,6.18,38.8,0S430.28,350.87,419.56,344.69Z" style="fill:#DB3022"></path><path d="M419.56,344.69c-10.71-6.19-28.08-6.19-38.8,0s-10.71,16.21,0,22.4,28.09,6.18,38.8,0S430.28,350.87,419.56,344.69Z" style="opacity:0.2"></path><path d="M412.8,348.78a31,31,0,0,0-25.27,0c-3.59,1.85-5.57,4.37-5.57,7.11s2,5.26,5.57,7.1a30.91,30.91,0,0,0,25.27,0c3.58-1.84,5.56-4.36,5.56-7.1S416.38,350.63,412.8,348.78Z" style="fill:#DB3022"></path><path d="M412.8,348.78a31,31,0,0,0-25.27,0c-3.59,1.85-5.57,4.37-5.57,7.11s2,5.26,5.57,7.1a30.91,30.91,0,0,0,25.27,0c3.58-1.84,5.56-4.36,5.56-7.1S416.38,350.63,412.8,348.78Z" style="opacity:0.4"></path><path d="M419,345.72c-5-2.89-11.69-4.48-18.81-4.48s-13.79,1.59-18.8,4.48c-4.8,2.77-7.43,6.38-7.43,10.17s2.63,7.39,7.43,10.16c5,2.89,11.68,4.48,18.8,4.48s13.8-1.59,18.81-4.48c4.79-2.77,7.43-6.38,7.43-10.16S423.76,348.49,419,345.72ZM412.8,363a30.91,30.91,0,0,1-25.27,0c-3.59-1.84-5.57-4.36-5.57-7.1s2-5.26,5.57-7.11a31,31,0,0,1,25.27,0c3.58,1.85,5.56,4.37,5.56,7.11S416.38,361.15,412.8,363Z" style="fill:#DB3022"></path><ellipse cx="400.16" cy="355.88" rx="17.25" ry="8.85" style="opacity:0.2"></ellipse><ellipse cx="400.16" cy="355.88" rx="17.25" ry="8.85" style="fill:#DB3022"></ellipse><ellipse cx="400.16" cy="355.88" rx="17.25" ry="8.85" style="opacity:0.6000000000000001"></ellipse><path d="M412.36,352c-6.73-3.46-17.66-3.46-24.4,0-2.78,1.43-4.41,3.23-4.9,5.09.49,1.86,2.12,3.66,4.9,5.09,6.74,3.45,17.67,3.45,24.4,0,2.79-1.43,4.42-3.23,4.9-5.09C416.78,355.2,415.15,353.4,412.36,352Z" style="fill:#DB3022"></path><path d="M412.36,352c-6.73-3.46-17.66-3.46-24.4,0-2.78,1.43-4.41,3.23-4.9,5.09.49,1.86,2.12,3.66,4.9,5.09,6.74,3.45,17.67,3.45,24.4,0,2.79-1.43,4.42-3.23,4.9-5.09C416.78,355.2,415.15,353.4,412.36,352Z" style="opacity:0.5"></path><polygon points="401.8 349.76 401.8 352.29 400.93 353.2 399.34 354.87 399.34 352.24 401.8 349.76" style="fill:#DB3022"></polygon><polygon points="401.8 349.76 401.8 352.29 400.93 353.2 399.34 354.87 399.34 352.24 401.8 349.76" style="opacity:0.30000000000000004"></polygon><path d="M399.34,352.24v1.49a14.8,14.8,0,0,1-2.46.7,2.59,2.59,0,0,1-1.05,0,2.21,2.21,0,0,1-.5-.21c-.61-.36-.71-.9.45-1.57A4.05,4.05,0,0,1,399.34,352.24Z" style="fill:#DB3022"></path><path d="M399.34,352.24v1.49a14.8,14.8,0,0,1-2.46.7,2.59,2.59,0,0,1-1.05,0,2.21,2.21,0,0,1-.5-.21c-.61-.36-.71-.9.45-1.57A4.05,4.05,0,0,1,399.34,352.24Z" style="opacity:0.45"></path><path d="M410.79,359.42v2.19L408,363.2,406,362a10.42,10.42,0,0,1-7.92.36v-2.19l1.26-1.25-1.26.35a8.11,8.11,0,0,1-6.17-.7c-1.24-.72-1.82-1.5-1.82-2.31v-2.13l.23-.93-.76-.43V350.6l2.05,1.18a3.19,3.19,0,0,0-1.52,2.35v0c0,.79.61,1.55,1.82,2.25,2.69,1.56,5.35,1,7.8.26,2.27-.74,3.92-1.61,5.23-.86.82.47.57,1-.34,1.57a4.53,4.53,0,0,1-3.9.23l-2.62,2.59a8.85,8.85,0,0,0,1.45.43,10.79,10.79,0,0,0,6.47-.78l2,1.18Z" style="fill:#DB3022"></path><path d="M390.06,354.13v0c0,.79.61,1.55,1.82,2.25,2.69,1.56,5.35,1,7.8.26,2.27-.74,3.92-1.61,5.23-.86.82.47.57,1-.34,1.57a4.53,4.53,0,0,1-3.9.23l-2.62,2.59a8.85,8.85,0,0,0,1.45.43,10.79,10.79,0,0,0,6.47-.78l2,1.18,2.77-1.6v2.19L408,363.2,406,362a10.42,10.42,0,0,1-7.92.36v-2.19l1.26-1.25-1.26.35a8.11,8.11,0,0,1-6.17-.7c-1.24-.72-1.82-1.5-1.82-2.31v-2.13l.23-.93" style="opacity:0.35000000000000003"></path><path d="M389.53,350.6v2.19l.76.43h0a4.48,4.48,0,0,1,1.3-1.45Z" style="opacity:0.45"></path><path d="M410.33,358a2.53,2.53,0,0,1-.21,1l-1.38-.8a2.73,2.73,0,0,0,1.57-2.1C410.32,356.74,410.33,357.94,410.33,358Z" style="fill:#DB3022"></path><g style="opacity:0.30000000000000004"><path d="M410.33,358a2.53,2.53,0,0,1-.21,1l-1.38-.8a2.73,2.73,0,0,0,1.57-2.1C410.32,356.74,410.33,357.94,410.33,358Z"></path></g><path d="M410.33,359.16l-1.59-.92a2.7,2.7,0,0,0,1.59-2.43,1.49,1.49,0,0,0,0-.21,3,3,0,0,0-1.77-2.15h0a7.24,7.24,0,0,0-3.68-1h-.35l-.33,0-.28,0-.12,0-.22,0a16.67,16.67,0,0,0-1.79.37l-.84.25-1.16.38-.43.15a13.88,13.88,0,0,1-2.46.7,2.59,2.59,0,0,1-1.05,0,2.21,2.21,0,0,1-.5-.21c-.62-.36-.71-.9.45-1.57a4.05,4.05,0,0,1,3.56-.37l2.46-2.48a10.54,10.54,0,0,0-7.43.41L392.32,349l-2.79,1.61,2.05,1.18a3.19,3.19,0,0,0-1.52,2.35v0c0,.79.6,1.55,1.82,2.25,2.69,1.56,5.36,1,7.8.26,2.27-.74,3.92-1.62,5.23-.86.82.47.57,1-.34,1.57a4.53,4.53,0,0,1-3.9.23l-2.62,2.59a9,9,0,0,0,1.44.43,9.53,9.53,0,0,0,2.53.18,11.63,11.63,0,0,0,4-1l2,1.18,2.77-1.59Z" style="fill:#DB3022"></path><polygon points="405.97 359.84 405.97 362.02 408.02 363.2 408.02 361.02 405.97 359.84" style="fill:#DB3022"></polygon><polygon points="405.97 359.84 405.97 362.02 408.02 363.2 408.02 361.02 405.97 359.84" style="opacity:0.45"></polygon><polygon points="389.53 350.6 392.32 348.99 394.37 350.17 392.34 349.32 389.53 350.6" style="fill:#f5f5f5"></polygon><path d="M395.78,352.61a4.05,4.05,0,0,1,3.56-.37l2.46-2.48L399.34,352A3.76,3.76,0,0,0,395.78,352.61Z" style="fill:#f5f5f5"></path><path d="M398.05,360.19a9,9,0,0,0,1.44.43,9.53,9.53,0,0,0,2.53.18,8.76,8.76,0,0,1-3.56-.71l2.21-2.49Z" style="fill:#f5f5f5"></path><polygon points="405.97 359.84 408.02 360.76 410.79 359.43 408.02 361.02 405.97 359.84" style="fill:#f5f5f5"></polygon><path d="M381.57,346.09c7.27-4.41,18.59-4.85,18.59-4.85-7.12,0-13.79,1.59-18.8,4.48-4.8,2.77-7.43,6.38-7.43,10.17C373.93,355.89,374.19,350.58,381.57,346.09Z" style="fill:#f5f5f5"></path><path d="M398.05,371.68c7.7.34,15.62-1.19,21.51-4.59,6.13-3.54,8.76-8.34,7.87-13,0,0,1.14,7.52-8.33,12.67S398.05,371.68,398.05,371.68Z" style="fill:#f5f5f5"></path><g style="opacity:0.15"><path d="M376.17,350a18.15,18.15,0,0,1,5.2-4.3l1-.58h0l-.88-.88-.76.42a19.63,19.63,0,0,0-5.46,4.48h0l.86.86Z" style="fill:#fff"></path><path d="M407.25,370a44.19,44.19,0,0,1-7.09.55c-1.23,0-2.44,0-3.62-.15h0l1.28,1.28h0a46.2,46.2,0,0,0,10.47-.65l-1-1Z" style="fill:#fff"></path><path d="M383,356.88c-.53-2.42.89-4.93,4.25-6.87l-.69-.69,0,0c-.27.16-.52.33-.77.5l-.36.25-.56.44-.42.37-.42.41c-.14.14-.27.3-.4.45s-.21.25-.31.38-.24.34-.35.51-.15.25-.22.37a4.89,4.89,0,0,0-.27.57c0,.12-.11.23-.15.35a5.27,5.27,0,0,0-.19.68c0,.09-.05.18-.07.27a5.62,5.62,0,0,0-.08.92Z" style="fill:#fff"></path><path d="M402,364.69a29,29,0,0,1-13.38-2.26l1.72,1.72h0c.64.22,1.32.41,2,.59l.48.11c.71.17,1.43.32,2.17.43h0c.72.11,1.45.19,2.19.25l.65.05c.7,0,1.41.08,2.12.08h.18c.57,0,1.13,0,1.69-.05H402l.81-.06Z" style="fill:#fff"></path><path d="M419,345.72c4.79,2.77,7.43,6.38,7.43,10.16a9.42,9.42,0,0,1-.08,1.2l1,1c1.16-4.75-1.44-9.75-7.76-13.41a34.21,34.21,0,0,0-9.14-3.49l1.66,1.67A31.34,31.34,0,0,1,419,345.72Z" style="fill:#fff"></path><path d="M400.16,341.23c.55,0,1.09,0,1.64,0l-1.21-1.2h0a45,45,0,0,0-7.07.46l1.06,1.06A44.34,44.34,0,0,1,400.16,341.23Z" style="fill:#fff"></path><path d="M419,366l.86.87a19.63,19.63,0,0,0,4.23-3.29h0l-.84-.84A19.13,19.13,0,0,1,419,366Z" style="fill:#fff"></path><path d="M417.32,356.79a7.21,7.21,0,0,1-3.22,4.3l.67.68.31-.21.17-.14c.29-.22.55-.46.8-.69l.19-.2c.22-.22.42-.44.61-.67l.15-.2a6.88,6.88,0,0,0,.44-.66l.15-.24a7.12,7.12,0,0,0,.35-.74c0-.09.07-.19.1-.29s0-.12,0-.18Z" style="fill:#fff"></path><path d="M399.12,346.12l.92.91a31,31,0,0,1,8.71,1.18l-1.32-1.32-.18,0-1.08-.22-.63-.11c-.34-.06-.69-.1-1-.15l-.73-.09-.95-.08c-.29,0-.57-.05-.86-.06s-.45,0-.67,0c-.38,0-.75,0-1.13,0S399.47,346.11,399.12,346.12Z" style="fill:#fff"></path><path d="M409.62,369.54l1,1a34.86,34.86,0,0,0,4.39-1.32l-.93-.93A35.38,35.38,0,0,1,409.62,369.54Z" style="fill:#fff"></path><path d="M388.56,342.77l-1-1a34.43,34.43,0,0,0-4.17,1.55l.91.9A31.42,31.42,0,0,1,388.56,342.77Z" style="fill:#fff"></path><path d="M389.15,349.07a23.88,23.88,0,0,1,4.36-1.35l-.79-.79-.06,0a22.72,22.72,0,0,0-4.22,1.42Z" style="fill:#fff"></path><path d="M409.21,363.42a27.85,27.85,0,0,1-4.69,1l.85.85.39-.07c.59-.11,1.16-.22,1.72-.35l.51-.13q.93-.23,1.8-.51l.17-.06Z" style="fill:#fff"></path><path d="M403.72,341.37c1.11.08,2.21.21,3.28.37l-1.38-1.37c-1.05-.13-2.11-.22-3.17-.27h0l1.26,1.27Z" style="fill:#fff"></path><path d="M426.18,360.92l-.88-.87a9.47,9.47,0,0,1-1.17,1.74h0l.86.85h0A13.58,13.58,0,0,0,426.18,360.92Z" style="fill:#fff"></path><path d="M412.8,348.79a20.84,20.84,0,0,0-2.84-1.18h0l1.67,1.67c.25.11.51.22.74.34,2.92,1.5,4.57,3.4,5,5.36l1,1s0-.05,0-.08v-.05C418.36,353.15,416.38,350.63,412.8,348.79Z" style="fill:#fff"></path><path d="M381.37,366.05c-4.07-2.35-6.59-5.29-7.25-8.44l-1.38-1.37c.15,3.94,2.83,7.85,8,10.84a30.31,30.31,0,0,0,5.16,2.35l-2.13-2.14A25.15,25.15,0,0,1,381.37,366.05Z" style="fill:#fff"></path><path d="M386.77,368.46l1.79,1.79h0q1.81.48,3.72.81l-1.51-1.51A35,35,0,0,1,386.77,368.46Z" style="fill:#fff"></path><path d="M374.39,353.16l-.92-.92h0a9,9,0,0,0-.63,2.28l1.1,1.11A8.41,8.41,0,0,1,374.39,353.16Z" style="fill:#fff"></path></g></g><g id="freepik--Coin--inject-1--inject-81"><path d="M340,397.38a17.57,17.57,0,0,0-6.55-6.06c-10.72-6.19-28.09-6.19-38.8,0a17.57,17.57,0,0,0-6.55,6.06h-1.48V403h0c.2,3.9,2.87,7.76,8,10.74,10.71,6.18,28.08,6.18,38.8,0,5.15-3,7.84-6.84,8-10.74h0v-5.6Z" style="fill:#DB3022"></path><g style="opacity:0.25"><path d="M340,397.38a17.57,17.57,0,0,0-6.55-6.06c-10.72-6.19-28.09-6.19-38.8,0a17.57,17.57,0,0,0-6.55,6.06h-1.48V403h0c.2,3.9,2.87,7.76,8,10.74,10.71,6.18,28.08,6.18,38.8,0,5.15-3,7.84-6.84,8-10.74h0v-5.6Z"></path></g><path d="M314,386.68c-7,0-14,1.55-19.4,4.64a17.57,17.57,0,0,0-6.55,6.06h-1.48V403h0c.2,3.9,2.87,7.76,8,10.74,5.36,3.09,12.38,4.64,19.4,4.64Z" style="opacity:0.1"></path><path d="M299.06,389.25a29.9,29.9,0,0,0-4.42,2.07,17.57,17.57,0,0,0-6.55,6.06h-1.48V403h0c.2,3.9,2.87,7.76,8,10.74a29.9,29.9,0,0,0,4.42,2.07Z" style="opacity:0.1"></path><path d="M329,389.25a30.38,30.38,0,0,1,4.42,2.07,17.57,17.57,0,0,1,6.55,6.06h1.48V403h0c-.19,3.9-2.88,7.76-8,10.74a30.38,30.38,0,0,1-4.42,2.07Z" style="fill:#DB3022;opacity:0.5"></path><path d="M333.44,386.18c-10.72-6.18-28.09-6.18-38.8,0s-10.71,16.22,0,22.4,28.08,6.19,38.8,0S344.15,392.37,333.44,386.18Z" style="fill:#DB3022"></path><path d="M333.44,386.18c-10.72-6.18-28.09-6.18-38.8,0s-10.71,16.22,0,22.4,28.08,6.19,38.8,0S344.15,392.37,333.44,386.18Z" style="opacity:0.2"></path><path d="M326.67,390.28a31,31,0,0,0-25.26,0c-3.59,1.84-5.57,4.37-5.57,7.1s2,5.26,5.57,7.1a30.89,30.89,0,0,0,25.26,0c3.59-1.84,5.57-4.36,5.57-7.1S330.26,392.12,326.67,390.28Z" style="fill:#DB3022"></path><path d="M326.67,390.28a31,31,0,0,0-25.26,0c-3.59,1.84-5.57,4.37-5.57,7.1s2,5.26,5.57,7.1a30.89,30.89,0,0,0,25.26,0c3.59-1.84,5.57-4.36,5.57-7.1S330.26,392.12,326.67,390.28Z" style="opacity:0.4"></path><path d="M332.84,387.22c-5-2.89-11.68-4.49-18.8-4.49s-13.8,1.6-18.8,4.49c-4.8,2.77-7.44,6.37-7.44,10.16s2.64,7.4,7.44,10.17c5,2.88,11.68,4.48,18.8,4.48s13.8-1.6,18.8-4.48c4.8-2.77,7.44-6.38,7.44-10.17S337.64,390,332.84,387.22Zm-6.17,17.26a30.89,30.89,0,0,1-25.26,0c-3.59-1.84-5.57-4.36-5.57-7.1s2-5.26,5.57-7.1a31,31,0,0,1,25.26,0c3.59,1.84,5.57,4.37,5.57,7.1S330.26,402.64,326.67,404.48Z" style="fill:#DB3022"></path><ellipse cx="314.04" cy="397.38" rx="17.25" ry="8.85" style="opacity:0.2"></ellipse><ellipse cx="314.04" cy="397.38" rx="17.25" ry="8.85" style="fill:#DB3022"></ellipse><ellipse cx="314.04" cy="397.38" rx="17.25" ry="8.85" style="opacity:0.6000000000000001"></ellipse><path d="M326.24,393.47c-6.74-3.46-17.66-3.46-24.4,0-2.79,1.42-4.42,3.22-4.9,5.08.48,1.86,2.11,3.66,4.9,5.09,6.74,3.46,17.66,3.46,24.4,0,2.79-1.43,4.42-3.23,4.9-5.09C330.66,396.69,329,394.9,326.24,393.47Z" style="fill:#DB3022"></path><path d="M326.24,393.47c-6.74-3.46-17.66-3.46-24.4,0-2.79,1.42-4.42,3.22-4.9,5.08.48,1.86,2.11,3.66,4.9,5.09,6.74,3.46,17.66,3.46,24.4,0,2.79-1.43,4.42-3.23,4.9-5.09C330.66,396.69,329,394.9,326.24,393.47Z" style="opacity:0.5"></path><polygon points="315.67 391.25 315.67 393.78 314.81 394.7 313.21 396.37 313.21 393.74 315.67 391.25" style="fill:#DB3022"></polygon><polygon points="315.67 391.25 315.67 393.78 314.81 394.7 313.21 396.37 313.21 393.74 315.67 391.25" style="opacity:0.30000000000000004"></polygon><path d="M313.21,393.73v1.5a13.63,13.63,0,0,1-2.45.69,2.85,2.85,0,0,1-1.06,0,2.66,2.66,0,0,1-.5-.21c-.61-.36-.7-.91.46-1.57A4,4,0,0,1,313.21,393.73Z" style="fill:#DB3022"></path><path d="M313.21,393.73v1.5a13.63,13.63,0,0,1-2.45.69,2.85,2.85,0,0,1-1.06,0,2.66,2.66,0,0,1-.5-.21c-.61-.36-.7-.91.46-1.57A4,4,0,0,1,313.21,393.73Z" style="opacity:0.45"></path><path d="M324.66,400.92v2.18l-2.76,1.6-2-1.18a10.42,10.42,0,0,1-7.92.35v-2.18l1.25-1.25-1.25.35a8.14,8.14,0,0,1-6.18-.71c-1.24-.71-1.81-1.5-1.81-2.3v-2.13l.22-.93-.75-.44v-2.19l2,1.19a3.16,3.16,0,0,0-1.52,2.35v0c0,.79.6,1.55,1.81,2.25,2.69,1.55,5.36,1,7.8.25,2.28-.74,3.93-1.61,5.24-.85.81.47.57,1-.35,1.57a4.52,4.52,0,0,1-3.9.22l-2.61,2.6a9.78,9.78,0,0,0,1.44.42,10.75,10.75,0,0,0,6.48-.78l2,1.19Z" style="fill:#DB3022"></path><path d="M303.94,395.63v0c0,.79.6,1.55,1.81,2.25,2.69,1.55,5.36,1,7.8.25,2.28-.74,3.93-1.61,5.24-.85.81.47.57,1-.35,1.57a4.52,4.52,0,0,1-3.9.22l-2.61,2.6a9.78,9.78,0,0,0,1.44.42,10.75,10.75,0,0,0,6.48-.78l2,1.19,2.76-1.6v2.18l-2.76,1.6-2-1.18a10.42,10.42,0,0,1-7.92.35v-2.18l1.25-1.25-1.25.35a8.14,8.14,0,0,1-6.18-.71c-1.24-.71-1.81-1.5-1.81-2.3v-2.13l.22-.93" style="opacity:0.35000000000000003"></path><path d="M303.41,392.09v2.19l.75.44h0a4.38,4.38,0,0,1,1.3-1.45Z" style="opacity:0.45"></path><path d="M324.21,399.49a2.5,2.5,0,0,1-.21,1l-1.39-.79a2.73,2.73,0,0,0,1.58-2.11C324.2,398.23,324.21,399.43,324.21,399.49Z" style="fill:#DB3022"></path><g style="opacity:0.30000000000000004"><path d="M324.21,399.49a2.5,2.5,0,0,1-.21,1l-1.39-.79a2.73,2.73,0,0,0,1.58-2.11C324.2,398.23,324.21,399.43,324.21,399.49Z"></path></g><path d="M324.2,400.65l-1.58-.92a2.69,2.69,0,0,0,1.58-2.42,1.34,1.34,0,0,0,0-.21,3,3,0,0,0-1.77-2.15h0a7.26,7.26,0,0,0-3.68-1h-.35l-.33,0-.29,0h-.12l-.21,0a14.17,14.17,0,0,0-1.79.37c-.29.07-.57.16-.84.25l-1.16.37a3.81,3.81,0,0,1-.44.15,12.8,12.8,0,0,1-2.45.7,2.47,2.47,0,0,1-1.06,0,2.3,2.3,0,0,1-.49-.2c-.62-.36-.71-.9.44-1.57a4,4,0,0,1,3.56-.37l2.46-2.49a10.57,10.57,0,0,0-7.42.42l-2.05-1.18-2.79,1.61,2,1.18a3.13,3.13,0,0,0-1.52,2.35v0c0,.79.6,1.55,1.81,2.25,2.7,1.55,5.36,1,7.8.25,2.27-.74,3.93-1.61,5.24-.86.81.48.57,1-.35,1.57a4.49,4.49,0,0,1-3.9.23l-2.62,2.6a10.67,10.67,0,0,0,1.45.42,9.91,9.91,0,0,0,2.52.19,11.69,11.69,0,0,0,4-1l2,1.19,2.76-1.6Z" style="fill:#DB3022"></path><polygon points="319.85 401.33 319.85 403.52 321.9 404.7 321.9 402.51 319.85 401.33" style="fill:#DB3022"></polygon><polygon points="319.85 401.33 319.85 403.52 321.9 404.7 321.9 402.51 319.85 401.33" style="opacity:0.45"></polygon><polygon points="303.41 392.1 306.2 390.49 308.25 391.67 306.22 390.81 303.41 392.1" style="fill:#f5f5f5"></polygon><path d="M309.65,394.11a4,4,0,0,1,3.56-.37l2.46-2.49-2.46,2.23A3.73,3.73,0,0,0,309.65,394.11Z" style="fill:#f5f5f5"></path><path d="M311.92,401.69a10.67,10.67,0,0,0,1.45.42,9.91,9.91,0,0,0,2.52.19,8.92,8.92,0,0,1-3.55-.71l2.2-2.5Z" style="fill:#f5f5f5"></path><polygon points="319.85 401.33 321.9 402.26 324.66 400.92 321.9 402.51 319.85 401.33" style="fill:#f5f5f5"></polygon><path d="M295.45,387.59c7.26-4.42,18.59-4.86,18.59-4.86-7.12,0-13.8,1.6-18.8,4.49-4.8,2.77-7.44,6.37-7.44,10.16C287.8,397.38,288.06,392.07,295.45,387.59Z" style="fill:#f5f5f5"></path><path d="M311.92,413.17c7.71.35,15.62-1.18,21.52-4.59,6.13-3.54,8.75-8.34,7.87-12.95,0,0,1.14,7.52-8.34,12.67S311.92,413.17,311.92,413.17Z" style="fill:#f5f5f5"></path><g style="opacity:0.15"><path d="M290,391.51a18.13,18.13,0,0,1,5.2-4.29l1-.58h0l-.88-.88c-.27.13-.51.27-.77.42a19.4,19.4,0,0,0-5.45,4.48h0l.85.85Z" style="fill:#fff"></path><path d="M321.12,411.48A45.33,45.33,0,0,1,314,412q-1.85,0-3.63-.15h0l1.28,1.28h0a46.82,46.82,0,0,0,10.47-.65l-1-1Z" style="fill:#fff"></path><path d="M296.9,398.37c-.53-2.42.9-4.93,4.26-6.86l-.69-.7-.05,0c-.27.16-.52.33-.77.5l-.37.26c-.19.14-.37.29-.55.44l-.43.37-.41.4c-.14.15-.28.3-.4.45l-.31.38c-.13.17-.24.35-.35.52s-.16.24-.23.36-.18.39-.27.58-.1.23-.14.34a5.76,5.76,0,0,0-.19.68,2.68,2.68,0,0,0-.07.27,5.73,5.73,0,0,0-.09.92Z" style="fill:#fff"></path><path d="M315.84,406.18a29,29,0,0,1-13.38-2.25l1.72,1.72h0c.65.23,1.33.42,2,.59l.48.12c.71.16,1.43.31,2.17.43h0c.71.11,1.45.19,2.19.26l.65.05c.7,0,1.4.07,2.11.08H314c.57,0,1.13,0,1.69,0h.18l.81-.06Z" style="fill:#fff"></path><path d="M332.84,387.22c4.8,2.77,7.44,6.38,7.44,10.16a8.08,8.08,0,0,1-.09,1.2l1,1c1.16-4.76-1.43-9.76-7.76-13.41a34,34,0,0,0-9.13-3.49l1.66,1.66A31.07,31.07,0,0,1,332.84,387.22Z" style="fill:#fff"></path><path d="M314,382.73c.55,0,1.09,0,1.63,0l-1.2-1.21h0a46.1,46.1,0,0,0-7.06.46l1.06,1.06A46.2,46.2,0,0,1,314,382.73Z" style="fill:#fff"></path><path d="M332.9,407.52l.87.86a19.26,19.26,0,0,0,4.23-3.29h0l-.84-.84A19.13,19.13,0,0,1,332.9,407.52Z" style="fill:#fff"></path><path d="M331.2,398.28a7.24,7.24,0,0,1-3.23,4.31l.68.67.3-.21.18-.13c.28-.23.55-.46.8-.7l.19-.19c.22-.22.42-.45.61-.68l.15-.19c.16-.22.31-.44.44-.66l.15-.25a6.89,6.89,0,0,0,.34-.73c0-.1.07-.2.11-.29s0-.12.05-.18Z" style="fill:#fff"></path><path d="M313,387.61l.92.92a31,31,0,0,1,8.71,1.18l-1.33-1.32-.17,0-1.08-.22-.63-.12-1-.14-.73-.09c-.32,0-.63-.06-.95-.08l-.87-.07-.67,0-1.12,0Z" style="fill:#fff"></path><path d="M323.49,411l1,1a35.55,35.55,0,0,0,4.39-1.33l-.92-.92A35.53,35.53,0,0,1,323.49,411Z" style="fill:#fff"></path><path d="M302.43,384.26l-1-1a32.24,32.24,0,0,0-4.17,1.54l.9.9A34,34,0,0,1,302.43,384.26Z" style="fill:#fff"></path><path d="M303,390.57a24,24,0,0,1,4.35-1.36l-.78-.78h-.06a24,24,0,0,0-4.22,1.42Z" style="fill:#fff"></path><path d="M323.08,404.91a27.53,27.53,0,0,1-4.68,1l.84.84.4-.07c.58-.1,1.16-.21,1.72-.35l.51-.12c.62-.16,1.22-.33,1.8-.52l.17-.05Z" style="fill:#fff"></path><path d="M317.59,382.87c1.11.08,2.21.2,3.28.37l-1.37-1.38c-1.05-.12-2.11-.21-3.17-.26h0l1.27,1.27Z" style="fill:#fff"></path><path d="M340.05,402.42l-.87-.87a11,11,0,0,1-1.17,1.73h0l.85.86h0A12.53,12.53,0,0,0,340.05,402.42Z" style="fill:#fff"></path><path d="M326.67,390.28a19.82,19.82,0,0,0-2.84-1.17h0l1.67,1.68.74.34c2.92,1.5,4.57,3.4,5,5.36l1,1v-.12C332.23,394.65,330.26,392.12,326.67,390.28Z" style="fill:#fff"></path><path d="M295.24,407.55c-4.07-2.35-6.58-5.3-7.25-8.44l-1.37-1.38c.14,3.94,2.83,7.85,8,10.85a30.84,30.84,0,0,0,5.17,2.35l-2.13-2.14C296.82,408.41,296,408,295.24,407.55Z" style="fill:#fff"></path><path d="M300.65,410l1.78,1.79h0c1.21.33,2.46.59,3.73.82l-1.52-1.51A34.8,34.8,0,0,1,300.65,410Z" style="fill:#fff"></path><path d="M288.27,394.66l-.93-.93h0a9.71,9.71,0,0,0-.63,2.28l1.1,1.11A8,8,0,0,1,288.27,394.66Z" style="fill:#fff"></path></g></g></g><g id="freepik--Bills--inject-1--inject-81"><g id="freepik--Money--inject-1--inject-81"><path d="M322.41,247c10.11-15.8-3.14-20.3,7-36.09l16-2.42c-11.25,12.4,1.22,19.72-9.62,32.4Z" style="fill:#DB3022"></path><path d="M322.41,247c10.11-15.8-3.14-20.3,7-36.09l16-2.42c-11.25,12.4,1.22,19.72-9.62,32.4Z" style="opacity:0.1"></path><path d="M327.45,241c2.84-10.05-2-15.12.86-25.17a8.18,8.18,0,0,0,2.7-2.32l8.37-1.44a1.43,1.43,0,0,0-.09,1.09.81.81,0,0,0,.68.5c-5.25,10.52,2.21,13-3,23.51a4.35,4.35,0,0,0-2.55,2.43l-6.59,2.84a1.71,1.71,0,0,0,.18-1.06.5.5,0,0,0-.53-.38m-.89.95c.81-.34,1,.32.22,1.56l7.94-3.49A3.83,3.83,0,0,1,337,237.6c6.17-11.17-2.17-13.57,4-24.75-1,.18-1.3-.56-.49-1.72L331,212.72a5.69,5.69,0,0,1-3,2.5c-3.47,10.84,2.07,15.85-1.4,26.7Z" style="opacity:0.30000000000000004"></path><g style="opacity:0.30000000000000004"><path d="M337.63,225.56a5.9,5.9,0,0,1-3.83,5.87c-2.32.78-4.44-.74-4.95-3.32a5.21,5.21,0,0,1,3.83-5.88A3.85,3.85,0,0,1,337.63,225.56Zm-7.95,2.3a3.14,3.14,0,0,0,4.06,2.69,4.67,4.67,0,0,0,3.06-4.75,3.15,3.15,0,0,0-4.06-2.68A4.21,4.21,0,0,0,329.68,227.86Z"></path></g><path d="M249.93,311.47c18.4-3.63,12.47-16.31,30.87-20l12.82,9.88c-16.73.46-13.38,14.53-30,15.49Z" style="fill:#DB3022"></path><path d="M249.93,311.47c18.4-3.63,12.47-16.31,30.87-20l12.82,9.88c-16.73.46-13.38,14.53-30,15.49Z" style="opacity:0.07"></path><path d="M257.77,310.94C267,306,267.32,299,276.54,294.13a8.08,8.08,0,0,0,3.53.33l6.84,5.05a1.46,1.46,0,0,0-.85.69.82.82,0,0,0,.11.83c-11.22,3.51-7.83,10.59-19.06,14.09a4.42,4.42,0,0,0-3.52-.15L257,312.18a1.6,1.6,0,0,0,.88-.6.48.48,0,0,0-.09-.64m-1.29,0c.8.35.47,1-1,1.24l8,3.32a3.82,3.82,0,0,1,3.29,0c12.34-3.28,8.29-11,20.63-14.25-.8-.57-.49-1.32.9-1.54l-7.76-5.79a5.63,5.63,0,0,1-3.87-.43c-10.23,5-10,12.47-20.23,17.48Z" style="opacity:0.30000000000000004"></path><g style="opacity:0.30000000000000004"><path d="M276,307.61a5.91,5.91,0,0,1-6.9,1.3c-2.16-1.13-2.53-3.71-1-5.88a5.21,5.21,0,0,1,6.89-1.3A3.86,3.86,0,0,1,276,307.61Zm-7.17-4.14a3.14,3.14,0,0,0,.87,4.79,4.67,4.67,0,0,0,5.55-1.09,3.15,3.15,0,0,0-.88-4.78A4.21,4.21,0,0,0,268.78,303.47Z"></path></g><path d="M360.62,175.28c-18.26,4.26-11.9,16.73-30.17,21l-13.15-9.43c16.71-1,12.88-15,29.49-16.5Z" style="fill:#DB3022"></path><path d="M352.8,176.09c-9.05,5.22-9.13,12.22-18.18,17.44a8,8,0,0,0-3.54-.22l-7-4.8a1.55,1.55,0,0,0,.83-.72.84.84,0,0,0-.14-.84c11.1-3.88,7.47-10.85,18.57-14.73a4.39,4.39,0,0,0,3.52,0l6.7,2.55a1.72,1.72,0,0,0-.86.64.5.5,0,0,0,.11.64m1.3-.06c-.82-.32-.51-.95.93-1.27l-8.12-3a3.85,3.85,0,0,1-3.3.13c-12.21,3.7-7.91,11.24-20.12,15,.81.55.53,1.3-.85,1.57l7.94,5.52a5.71,5.71,0,0,1,3.89.3c10-5.35,9.58-12.81,19.63-18.16Z" style="opacity:0.30000000000000004"></path><g style="opacity:0.30000000000000004"><path d="M334.75,180a5.9,5.9,0,0,1,6.85-1.53c2.2,1.05,2.66,3.62,1.23,5.83a5.21,5.21,0,0,1-6.85,1.54A3.86,3.86,0,0,1,334.75,180Zm7.31,3.9a3.14,3.14,0,0,0-1-4.76,4.66,4.66,0,0,0-5.5,1.27,3.15,3.15,0,0,0,1,4.76A4.22,4.22,0,0,0,342.06,183.93Z"></path></g><path d="M317.48,237c-18.26,4.26-11.9,16.73-30.17,21l-13.15-9.43c16.71-1,12.88-15,29.49-16.5Z" style="fill:#DB3022"></path><path d="M309.66,237.83c-9.05,5.22-9.13,12.22-18.18,17.44a8,8,0,0,0-3.54-.22l-7-4.81a1.54,1.54,0,0,0,.83-.71.84.84,0,0,0-.14-.84c11.1-3.88,7.47-10.85,18.57-14.73a4.39,4.39,0,0,0,3.52,0l6.7,2.55a1.72,1.72,0,0,0-.86.64.5.5,0,0,0,.11.64m1.3-.06c-.82-.32-.51-1,.93-1.27l-8.12-3a3.85,3.85,0,0,1-3.3.13c-12.21,3.7-7.91,11.24-20.12,14.95.81.55.53,1.3-.85,1.57l7.94,5.52a5.65,5.65,0,0,1,3.89.3c10.05-5.35,9.58-12.81,19.63-18.16Z" style="opacity:0.30000000000000004"></path><g style="opacity:0.30000000000000004"><path d="M291.61,241.77a5.9,5.9,0,0,1,6.85-1.53c2.2,1,2.66,3.62,1.23,5.83a5.21,5.21,0,0,1-6.85,1.54A3.86,3.86,0,0,1,291.61,241.77Zm7.31,3.9a3.14,3.14,0,0,0-1-4.76,4.66,4.66,0,0,0-5.5,1.27,3.14,3.14,0,0,0,1,4.75A4.21,4.21,0,0,0,298.92,245.67Z"></path></g><path d="M318.93,325.2c-17.91-5.56-18.73,8.41-36.64,2.85l-6.58-14.79c14.94,7.56,18.69-6.41,33.79.68Z" style="fill:#DB3022"></path><path d="M318.93,325.2c-17.91-5.56-18.73,8.41-36.64,2.85l-6.58-14.79c14.94,7.56,18.69-6.41,33.79.68Z" style="opacity:0.1"></path><path d="M311.78,321.94c-10.45-.07-14.06,5.92-24.51,5.85a8.07,8.07,0,0,0-2.95-2l-3.61-7.69a1.48,1.48,0,0,0,1.08-.2.81.81,0,0,0,.3-.79c11.54,2.26,11.93-5.58,23.47-3.32a4.36,4.36,0,0,0,3,1.81l4.49,5.6a1.65,1.65,0,0,0-1.07.11.5.5,0,0,0-.22.61m1.15.61c-.55-.69,0-1.08,1.44-.63l-5.47-6.73a3.85,3.85,0,0,1-2.91-1.55c-12.41-3-12.5,5.7-24.92,2.71.43.89-.2,1.4-1.53.93l4.07,8.78a5.66,5.66,0,0,1,3.2,2.23c11.38.47,14.74-6.21,26.12-5.74Z" style="opacity:0.30000000000000004"></path><g style="opacity:0.30000000000000004"><path d="M294.21,316.22a5.89,5.89,0,0,1,6.68,2.13c1.37,2,.47,4.47-1.89,5.66a5.21,5.21,0,0,1-6.68-2.14A3.84,3.84,0,0,1,294.21,316.22Zm4.34,7a3.14,3.14,0,0,0,1.5-4.63,4.65,4.65,0,0,0-5.38-1.69,3.15,3.15,0,0,0-1.51,4.63A4.21,4.21,0,0,0,298.55,323.27Z"></path></g><path d="M309.74,152.82c-18-5.15-18.54,8.84-36.58,3.7-2.76-5.86-4.15-8.78-6.91-14.63,15.11,7.21,18.53-6.85,33.79-.11Z" style="fill:#DB3022"></path><path d="M302.51,149.72c-10.45.17-13.92,6.25-24.36,6.42a8.34,8.34,0,0,0-3-1.91c-1.51-3-2.27-4.56-3.79-7.6a1.48,1.48,0,0,0,1.07-.23.82.82,0,0,0,.29-.79c11.58,2,11.79-5.86,23.38-3.87a4.44,4.44,0,0,0,3.06,1.75c2,2.32,2.67,3.16,4.62,5.49a1.65,1.65,0,0,0-1.06.13.49.49,0,0,0-.21.61m1.16.59c-.56-.68,0-1.08,1.43-.67l-5.62-6.6a3.82,3.82,0,0,1-3-1.48c-12.48-2.7-12.37,6-24.85,3.29.45.88-.17,1.4-1.51,1l4.27,8.68a5.62,5.62,0,0,1,3.25,2.15c11.39.2,14.59-6.55,26-6.34Z" style="opacity:0.30000000000000004"></path><g style="opacity:0.30000000000000004"><path d="M284.81,144.41a5.89,5.89,0,0,1,6.73,2c1.42,2,.57,4.46-1.76,5.7a5.21,5.21,0,0,1-6.73-2A3.85,3.85,0,0,1,284.81,144.41Zm4.5,7a3.14,3.14,0,0,0,1.4-4.66,4.66,4.66,0,0,0-5.43-1.56,3.14,3.14,0,0,0-1.39,4.66A4.2,4.2,0,0,0,289.31,151.36Z"></path></g><path d="M265,304.53c-18-5.14-18.53,8.85-36.57,3.7l-6.91-14.63c15.11,7.21,18.53-6.84,33.79-.11Z" style="fill:#DB3022"></path><path d="M257.79,301.44c-10.45.17-13.92,6.25-24.37,6.42a8,8,0,0,0-3-1.91c-1.52-3.05-2.27-4.57-3.79-7.61a1.49,1.49,0,0,0,1.07-.22.81.81,0,0,0,.28-.8c11.59,2,11.8-5.86,23.39-3.86a4.37,4.37,0,0,0,3.06,1.74l4.62,5.49a1.64,1.64,0,0,0-1.06.14.49.49,0,0,0-.21.61M259,302c-.56-.68,0-1.08,1.43-.66l-5.63-6.6a3.82,3.82,0,0,1-2.94-1.49c-12.48-2.69-12.37,6-24.85,3.3.45.87-.17,1.4-1.51,1l4.27,8.68a5.63,5.63,0,0,1,3.25,2.16c11.39.2,14.59-6.55,26-6.35Z" style="opacity:0.30000000000000004"></path><g style="opacity:0.30000000000000004"><path d="M240.09,296.13a5.87,5.87,0,0,1,6.73,2c1.41,2,.57,4.46-1.76,5.69a5.21,5.21,0,0,1-6.73-2A3.84,3.84,0,0,1,240.09,296.13Zm4.5,6.95a3.14,3.14,0,0,0,1.4-4.66,4.66,4.66,0,0,0-5.43-1.57,3.15,3.15,0,0,0-1.4,4.66A4.22,4.22,0,0,0,244.59,303.08Z"></path></g><path d="M312.3,179.65c-19.17,4.67-10,17.46-29.17,22.13l-15.85-10.17c17.48-2.85,11.7-14.5,29.18-17.35Z" style="fill:#DB3022"></path><path d="M312.3,179.65c-19.17,4.67-10,17.46-29.17,22.13l-15.85-10.17c17.48-2.85,11.7-14.5,29.18-17.35Z" style="opacity:0.07"></path><g style="opacity:0.30000000000000004"><path d="M304.1,180.85c-9.17,5.36-8.81,12.35-18,17.71a9.65,9.65,0,0,0-3.63-.32L274.86,193a1.34,1.34,0,0,0,.7-.74,1,1,0,0,0-.16-.87c11.25-3.84,7-11.17,18.23-15a13.44,13.44,0,0,0,3.55,0l7.55,3.07a1.45,1.45,0,0,0-.75.64.64.64,0,0,0,.12.68m1.81,0c-.91-.38-.63-1,.87-1.35l-9-3.59a8.76,8.76,0,0,1-4.08-.13c-12.77,3.55-7.32,11.79-20.09,15.35.92.62.68,1.43-.77,1.67l9,6.24a6.14,6.14,0,0,1,4.19.46c10.55-5.54,9.34-13.12,19.89-18.65Z"></path></g><g style="opacity:0.30000000000000004"><path d="M293.63,188.71c-1,1.86-3.65,2.41-5.8,1.28s-2.94-3.37-1.88-5.05,3.72-2.23,5.81-1.28a3.61,3.61,0,0,1,1.87,5.05m.9.44a4.4,4.4,0,0,0-2.25-6.2c-2.57-1.14-5.91-.5-7.23,1.55s-.4,4.78,2.26,6.2,6,.78,7.22-1.55Z"></path></g><path d="M277.24,306.41c8.59-7.91,25.8-7.53,34.39-15.44l11.47,6.62c-5,9-21.78,10.9-26.75,19.86Z" style="fill:#DB3022"></path><g style="opacity:0.30000000000000004"><path d="M283.18,305.16c8.36-5.55,18.72-4.75,27.07-10.31a4,4,0,0,0,2.54-.29l6.07,3.5a2.28,2.28,0,0,0-.17,1,1.62,1.62,0,0,0,.32.87c-6.78,6.46-16.36,6.12-23.14,12.58a4.26,4.26,0,0,0-2.9.09l-9.27-5.36a1.83,1.83,0,0,0,.06-1,2.3,2.3,0,0,0-.58-1M281.5,305c1.11.64,1.34,1.64.68,2.32l11.13,6.43c.53-.76,2-.8,3.08-.16,6.56-7.25,17.28-6.58,23.83-13.83a1.37,1.37,0,0,1-.26-2.09l-7.08-4.08a2.41,2.41,0,0,1-2.68.39c-8.59,4.86-20.1,6.16-28.7,11Z"></path></g><g style="opacity:0.30000000000000004"><path d="M298.37,301c2.69-.8,6.39-.59,8.31.52s1.55,2.81-.89,3.76a10.86,10.86,0,0,1-8.31-.51c-2.16-1.25-1.8-3,.89-3.77m-.86-.5c-3.36,1-3.77,3.11-1.06,4.67a13,13,0,0,0,10.2.61c3-1.19,3.4-3.32,1.06-4.66s-6.85-1.59-10.2-.62Z"></path></g></g></g><g id="freepik--Clouds--inject-1--inject-81"><g id="freepik--clouds--inject-1--inject-81"><path d="M129.67,46.84l-8,4.63c0-.41.06-.82.06-1.22V47.57c0-4.78-2.9-7-6.48-4.91a11.9,11.9,0,0,0-3.87,4c-.58-6.06-4.66-8.66-9.62-5.8-5.36,3.1-9.7,11.4-9.7,18.54v4a12.43,12.43,0,0,0,.82,4.72L86.2,71.94c-2,1.15-3.6,4.22-3.6,6.87s1.61,3.87,3.6,2.72l43.47-25.1c2-1.14,3.6-4.22,3.6-6.87S131.66,45.69,129.67,46.84Z" style="fill:#ebebeb"></path><path d="M181.22,60.85l-6.06,3.5c0-.31.05-.62.05-.92v-2c0-3.6-2.19-5.26-4.89-3.7a9,9,0,0,0-2.92,3c-.44-4.57-3.52-6.54-7.26-4.38-4,2.34-7.32,8.6-7.32,14v3a9.4,9.4,0,0,0,.62,3.57l-5,2.9A6.51,6.51,0,0,0,145.69,85c0,2,1.22,2.92,2.72,2l32.81-18.94a6.49,6.49,0,0,0,2.71-5.19C183.93,60.9,182.72,60,181.22,60.85Z" style="fill:#ebebeb"></path></g></g><g id="freepik--Character--inject-1--inject-81"><g id="freepik--Characters--inject-1--inject-81"><path d="M368.77,131.56c3.09-1.21,6.2-13.91,6.2-13.91L362.09,113l-1.5,5A29.2,29.2,0,0,0,368.77,131.56Z" style="fill:#9e5d55"></path><path d="M385,79.43s-7.78-1.2-12.76,3.22-11.66,33.89-11.66,33.89,6.75,7.9,14.92,5.58S385,79.43,385,79.43Z" style="fill:#37474f"></path><polygon points="420.63 299.82 409.01 299.82 407.47 279.25 420.63 281.3 420.63 299.82" style="fill:#87423a"></polygon><polygon points="380.43 288.31 367.69 288.75 367.49 266.88 382.27 266.01 380.43 288.31" style="fill:#87423a"></polygon><path d="M420.63,154.06c1.45,13.51-.65,68.33-.65,68.33.24,2.84,3,7.87,3.18,18.08.31,14.8-2.53,48.56-2.53,48.56a18,18,0,0,1-12.5-.32s-6.52-47.66-8.37-62.31c-1.61-12.79-6.22-46.24-6.22-46.24l-7,43.45a72.66,72.66,0,0,1,.58,15.73c-.49,6.77-5.62,39-5.62,39a24.6,24.6,0,0,1-14.12,0s-.71-50.89-.83-57.11c-.14-7.09,1.66-68.48,1.66-68.48Z" style="fill:#37474f"></path><path d="M393.54,180.16s-9.19-3-15.31-8.91c0,0,2.77,5.19,11,10l-2,38.09Z" style="fill:#263238"></path><path d="M394.9,321.45c-.39.36-.27,2.86.15,3.53s3.1,3,7.86,3.31c4.55.32,8.62-.29,11.29-2s4-3.57,4.22-6.16,0-5.09,1.2-7.09c1.14-1.84,3-3.92,3.35-4.92.87-2.17,0-5.28,0-5.28Z" style="fill:#37474f"></path><path d="M407.36,298.81a10.17,10.17,0,0,1-.53,2.89,26.19,26.19,0,0,1-2.79,5.7,22.78,22.78,0,0,1-1.9,2.68c-1.37,1.64-3.08,3-4.54,4.56a9.25,9.25,0,0,0-2.81,5.58c-.19,3.57,3.68,4.79,6.66,5.32a21.78,21.78,0,0,0,9.7-.49,8.89,8.89,0,0,0,6.53-7.11c.16-1,.1-2,.22-3a14.06,14.06,0,0,1,2.78-6.24,19.16,19.16,0,0,0,2.13-3.4c.93-2.21.18-4.7-.41-6.9-.52-1.9-1.1-4.05-1.77-3.87,0,1,0,1.08-.7,1.75-.9.85-.94,2.12-1.88,2.87a13.11,13.11,0,0,0,.66-2.54,1.41,1.41,0,0,0-.2-1,2.6,2.6,0,0,0-1.09-.59,22.94,22.94,0,0,0-4.34-1,13.06,13.06,0,0,0-4.23,0,1.85,1.85,0,0,0-1.06.62,2.06,2.06,0,0,0-.38,1.22C407.34,296.39,407.39,297.86,407.36,298.81Z" style="fill:#455a64"></path><path d="M403.56,308.15c1.33-1,4.31-1,5.94-.83a9.92,9.92,0,0,1,4.63,1.62,1,1,0,0,0,1.36-.11h0a1,1,0,0,0-.1-1.51,10,10,0,0,0-5.21-1.93c-4-.29-5.18.4-5.18.4S403.17,307,403.56,308.15Z" style="fill:#f5f5f5"></path><path d="M400.5,311.81c1.68-1,4.95-.85,6.58-.67a9.26,9.26,0,0,1,4.5,1.71,1.06,1.06,0,0,0,1.37-.11h0a1,1,0,0,0-.1-1.51,10.4,10.4,0,0,0-5.33-2.09c-4-.28-5,.54-5,.54A3.31,3.31,0,0,0,400.5,311.81Z" style="fill:#f5f5f5"></path><path d="M411.78,301.55a9.89,9.89,0,0,0-5,.42c-.71.4-1.17,1.51-.72,1.8a9.28,9.28,0,0,1,4.47-.62,13.44,13.44,0,0,1,4.33,1.19c.35.16.75.37,1.11.57a1,1,0,0,0,1.32-.41h0a.9.9,0,0,0-.35-1.15A12.77,12.77,0,0,0,411.78,301.55Z" style="fill:#f5f5f5"></path><path d="M342.72,303.61a4.24,4.24,0,0,0,.18,3.17c.44.93,5.3,3.67,11.85,3.23a27.32,27.32,0,0,0,13.55-4.73c2.49-1.66,5.09-2,8.34-2.15s7.5-1.81,8.21-3.32-.1-4.13-.1-4.13Z" style="fill:#37474f"></path><path d="M369.16,283.16l-.52-.11a2.13,2.13,0,0,0-.87,0,1.61,1.61,0,0,0-.8.54,16.32,16.32,0,0,0-1.68,2.63c-1.37,2.24-4.25,4.09-7.4,5.79-2.14,1.15-4.24,2-6.45,3s-5.25,1.64-7,2.83c-2.57,1.73-2.9,6.08,0,7.8,2.52,1.48,9.17,3.09,16.15,1.12,3.79-1.08,8-5.14,13-5.53,3.17-.25,9.16-1.14,11.2-3.54.76-1.07-.25-4.46-1.08-7.38-.9-3.19-1.76-8.17-2.82-7.89a1.46,1.46,0,0,1-.55,1.2c-.39.4-.92.66-1.34,1a8.38,8.38,0,0,0-1.75,2.52,1.9,1.9,0,0,1-.91,1c-.53.2-.93-.14-1.4-.35a2.74,2.74,0,0,0-1.89-.14,11.81,11.81,0,0,1,.33-1.87,1.13,1.13,0,0,0,.05-.6,1,1,0,0,0-.41-.46A10,10,0,0,0,369.16,283.16Z" style="fill:#455a64"></path><path d="M360.85,290.24a2.93,2.93,0,0,1,2.34-1.56c1.44-.27,4,.79,5.57,2.1a1.18,1.18,0,0,1-.17,2h0a1.18,1.18,0,0,1-1.35-.15A9,9,0,0,0,360.85,290.24Z" style="fill:#f5f5f5"></path><path d="M356.38,292.75a3.37,3.37,0,0,1,2.77-1.43s3.77.11,6.1,2.28a1.16,1.16,0,0,1-.16,1.89h0a1.14,1.14,0,0,1-1.3-.15A9.05,9.05,0,0,0,356.38,292.75Z" style="fill:#f5f5f5"></path><path d="M351.44,295a3.79,3.79,0,0,1,2.88-1.29,10.1,10.1,0,0,1,5.84,2.31,1.15,1.15,0,0,1-.16,1.89h0a1.14,1.14,0,0,1-1.3-.15A8.66,8.66,0,0,0,351.44,295Z" style="fill:#f5f5f5"></path><path d="M401.42,79.75c2.19.53,7,.88,12.12,2.72,2.8,1,3.39,4.17,4,6.79,1.91,8.4,2.24,26,2.24,26l2.32,52.3c-7.1,5.17-40.29,8.17-55.23-2.74,0,0,3.62-60.51,3.62-68.11S374.69,80,386.35,79.31Z" style="fill:#DB3022"></path><g style="opacity:0.30000000000000004"><path d="M401.42,79.75c2.19.53,7,.88,12.12,2.72,2.8,1,3.39,4.17,4,6.79,1.91,8.4,2.24,26,2.24,26l2.32,52.3c-7.1,5.17-40.29,8.17-55.23-2.74,0,0,3.62-60.51,3.62-68.11S374.69,80,386.35,79.31Z"></path></g><path d="M410.47,43.64a5.05,5.05,0,0,0-2.67-1.42l3.47-1.86a2.79,2.79,0,0,0-3.83-1.27,3,3,0,0,0-1.29,3.82s-15.3-9.25-20.81-9.25c-7.56,0-14.92,2.57-12.38,13.37,1.74,7.36,4.82,14,12.38,14,5.94,0,17.82,10.38,17.82,10.38a4.74,4.74,0,0,0,2.73-2.2c.89-1.71,3.11-12.13,3.11-12.13h0C411.27,51.35,412.29,45.51,410.47,43.64Z" style="fill:#263238"></path><path d="M403.57,57.56c.84.5,2-1.11,3.06-2.19s4.41-2.56,6.09,1-1.48,8.38-4.14,9.22c-4.57,1.43-5.26-1.5-5.26-1.5l-.34,17h0a12.86,12.86,0,0,1-12.1,4.67c-3.05-.54-5.72-2.23-2.8-5.62l0-5a29,29,0,0,1-6.17.32c-3.37-.52-5.48-3.18-6.5-6.82-1.64-5.85-2.27-10.57-.87-22.08,1.52-12.61,16.19-12.74,24.11-7.75S403.57,57.56,403.57,57.56Z" style="fill:#9e5d55"></path><path d="M399,52.93c0-2.14-2.58-2.67-7.77-2.64-3.12,0-16.59,0-16.59,0h0c-4.12.29-4.68,1.57-4.56,4,.21,4.2.84,6.86,5.44,6.83,3.1,0,5.83-1.65,5.81-5.22V54.79a1.48,1.48,0,0,1,1.48-1.48h0a1.49,1.49,0,0,1,1.49,1.48v1a5.84,5.84,0,0,0,.46,2.36c.82,2.12,3.51,5.43,8.83,4.13S399,55.82,399,52.93Z" style="fill:#DB3022"></path><path d="M399,52.93c0-2.14-2.58-2.67-7.77-2.64-3.12,0-16.59,0-16.59,0h0c-4.12.29-4.68,1.57-4.56,4,.21,4.2.84,6.86,5.44,6.83,3.1,0,5.83-1.65,5.81-5.22V54.79a1.48,1.48,0,0,1,1.48-1.48h0a1.49,1.49,0,0,1,1.49,1.48v1a5.84,5.84,0,0,0,.46,2.36c.82,2.12,3.51,5.43,8.83,4.13S399,55.82,399,52.93Z" style="opacity:0.7000000000000001"></path><path d="M374.8,40.92c2.76,2.24,4.56,3.44,9.91,3.63a23.88,23.88,0,0,0,10.61-2.08,7,7,0,0,0,1.58,3.46,10.44,10.44,0,0,0,3.75,2.46c.29,2.27.28,5.18.42,7.47,0,.77,0,4.78,1.87,3.63a8.94,8.94,0,0,0,1.59-1.78,26,26,0,0,1,2.1-2.34c1.45-1.31-.41-13.22-.41-13.22a5.79,5.79,0,0,0-1-6.43c-2-2.18-4.74-4.84-13.72-3.77-6.4.75-13.37,2.75-19,0C371.72,35.16,372.82,39.31,374.8,40.92Z" style="fill:#263238"></path><path d="M388.1,75.12s7.51-1.51,10.13-2.91a8.57,8.57,0,0,0,3.63-3.59,11.83,11.83,0,0,1-2.06,4.24c-1.92,2.45-11.7,4.26-11.7,4.26Z" style="fill:#87423a"></path><path d="M391,47.74l3.55,1.36a2,2,0,0,0-1.13-2.52A1.85,1.85,0,0,0,391,47.74Z" style="fill:#263238"></path><path d="M389.1,65.49,385,67a2.15,2.15,0,0,0,2.78,1.36A2.28,2.28,0,0,0,389.1,65.49Z" style="fill:#87423a"></path><path d="M375.16,49.14l3.51-1.53a1.85,1.85,0,0,0-2.46-1A2,2,0,0,0,375.16,49.14Z" style="fill:#263238"></path><polygon points="383.09 54.43 382.56 64.24 377.43 62.49 383.09 54.43" style="fill:#87423a"></polygon><path d="M390.8,109.39a5.81,5.81,0,0,1-2.05-.38c-3.94-1.5-6.12-7.17-5.69-14.8.78-13.83,3.24-14.94,4-15.42l1.08-.52v1.1h0A3.58,3.58,0,0,0,386.46,81c-.82,1.63-1.95,5.28-2.4,13.29-.41,7.17,1.53,12.46,5.05,13.81,2.59,1,5.65-.42,8.39-3.87,5.67-7.11,7.62-18.87,5.5-24.16l0-2,.42.6c3.25,5.64.64,18.83-5.17,26.14C395.92,107.81,393.28,109.39,390.8,109.39Z" style="fill:#DB3022"></path><path d="M390.93,119.26a7.07,7.07,0,0,1-4.31-1.7c-3.84-3-7-12.11-5.35-23.26,1.33-8.9,4-13.33,4.11-13.51l.74.5s-2.56,4.47-3.86,13.16c-1.62,10.77,1.36,19.54,5,22.32a5.53,5.53,0,0,0,4.61,1.39c2.44-.51,5.44-2.12,8.05-6.88,4.68-8.55,4.67-21.39,3.63-29.66l1-.13c1.06,8.43,1.1,21.59-3.69,30.36-2.76,5-6,6.72-8.77,7.29A5.33,5.33,0,0,1,390.93,119.26Z" style="fill:#DB3022"></path><path d="M383.82,148.73a14,14,0,0,1-2.73.71c-4.12.73-8.25.94-12.4,1.29-.6.05-1.32.18-1.56.74s.32,1.34.91,1.74c2.52,1.72,9.69,3.38,19,3.38a55.14,55.14,0,0,0,10.1-1c3.15-.59,8.66-1.82,15.78-3.91,5.31-1.57,10.54-3.4,15.75-5.3,3.77-1.38,8-2.67,11.37-5,.39-.27.93-.62,1.08-1.09,2.72-6.47-5-25.16-8.27-33.77-5.82-15.19-10.4-22.17-17.64-21.9,0,0-4.05,5.6-1.26,15.19,2.25,7.75,8,20.94,11.67,31.12-5.65,2.63-11.17,5.51-16.85,8-2.58,1.16-7.6,4.06-12.08,3.92" style="fill:#9e5d55"></path><path d="M413.54,82.47s6.4-.65,9.64,2.17S433.25,102.18,436.9,116a30.51,30.51,0,0,1-15.48,7.7l-8.79-23.83S408.25,88.81,413.54,82.47Z" style="fill:#37474f"></path><g id="freepik--money--inject-1--inject-81"><polygon points="347.26 148.54 377.83 130.88 393.12 139.71 362.55 157.36 347.26 148.54" style="fill:#DB3022"></polygon><path d="M353.22,147.48,376,134.33a5.52,5.52,0,0,0,3.17,0l8,4.61a1.23,1.23,0,0,0,0,1.83l-22.78,13.15a5.52,5.52,0,0,0-3.17,0l-8-4.61a1.23,1.23,0,0,0,0-1.83m-1.2,0a1,1,0,0,1,0,1.93l9.1,5.26a3.67,3.67,0,0,1,3.35,0l23.89-13.8a1,1,0,0,1,0-1.93l-9.1-5.26a3.73,3.73,0,0,1-3.35,0L352,147.43Z" style="opacity:0.30000000000000004"></path><g style="opacity:0.30000000000000004"><path d="M374.76,146.76a10.08,10.08,0,0,1-9.14,0c-2.52-1.45-2.52-3.82,0-5.28a10.15,10.15,0,0,1,9.14,0C377.28,142.94,377.28,145.31,374.76,146.76ZM366.48,142c-2,1.18-2,3.1,0,4.28a8.22,8.22,0,0,0,7.42,0c2-1.18,2-3.1,0-4.28A8.22,8.22,0,0,0,366.48,142Z"></path></g><polygon points="347.26 148.54 347.26 152.25 362.55 161.08 362.55 157.36 347.26 148.54" style="fill:#DB3022"></polygon><g style="opacity:0.2"><polygon points="347.26 148.54 347.26 152.25 362.55 161.08 362.55 157.36 347.26 148.54"></polygon></g><polygon points="362.55 158.19 357.72 155.51 362.55 158.42 362.55 158.19" style="opacity:0.30000000000000004"></polygon><polygon points="347.26 150.3 348.87 151.32 347.26 150.49 347.26 150.3" style="opacity:0.30000000000000004"></polygon><polygon points="347.26 151.19 355.31 155.97 347.26 151.46 347.26 151.19" style="opacity:0.30000000000000004"></polygon><polygon points="362.55 159.08 354.5 154.58 362.55 159.37 362.55 159.08" style="opacity:0.30000000000000004"></polygon><polygon points="362.55 161.08 393.12 143.43 393.12 139.71 362.55 157.36 362.55 161.08" style="fill:#DB3022"></polygon><g style="opacity:0.1"><polygon points="362.55 161.08 393.12 143.43 393.12 139.71 362.55 157.36 362.55 161.08"></polygon></g><g style="opacity:0.30000000000000004;mix-blend-mode:multiply"><polygon points="362.55 158.19 364.16 157.36 362.55 158.42 362.55 158.19"></polygon></g><g style="opacity:0.30000000000000004;mix-blend-mode:multiply"><polygon points="362.55 159.08 370.64 154.55 362.55 159.37 362.55 159.08"></polygon></g><g style="opacity:0.30000000000000004;mix-blend-mode:multiply"><polygon points="393.12 141.46 387.49 144.82 393.12 141.68 393.12 141.46"></polygon></g><g style="opacity:0.30000000000000004;mix-blend-mode:multiply"><polygon points="393.12 142.4 389.9 144.36 393.12 142.6 393.12 142.4"></polygon></g></g><path d="M396.66,142.93c-2.74-.09-5.35-.93-8-1.48a64.44,64.44,0,0,0-8.4-1c-1-.07-1.25.79-.95,1.62a2.79,2.79,0,0,0,.54.85,9.56,9.56,0,0,0,3.54,2.25,10.79,10.79,0,0,1,2.1,1c.49.36.77.79.44,1.3a5,5,0,0,1-2.09,1.3" style="fill:#9e5d55"></path><path d="M310,159.46c18.4-3.63,12.47-16.31,30.87-20l12.82,9.88c-16.73.46-13.38,14.53-30,15.49Z" style="fill:#DB3022"></path><path d="M310,159.46c18.4-3.63,12.47-16.31,30.87-20l12.82,9.88c-16.73.46-13.38,14.53-30,15.49Z" style="opacity:0.1"></path><path d="M317.82,158.93C327,154,327.36,147,336.59,142.12a8.08,8.08,0,0,0,3.53.33L347,147.5a1.43,1.43,0,0,0-.85.69.82.82,0,0,0,.11.83c-11.22,3.51-7.83,10.59-19.06,14.09a4.42,4.42,0,0,0-3.52-.15L317,160.17a1.6,1.6,0,0,0,.88-.6.48.48,0,0,0-.09-.64m-1.3,0c.81.35.48,1-1,1.24l8,3.32a3.82,3.82,0,0,1,3.29,0c12.34-3.28,8.29-11,20.62-14.25-.79-.57-.49-1.32.91-1.54l-7.76-5.79a5.63,5.63,0,0,1-3.87-.43c-10.23,5-10,12.47-20.24,17.48Z" style="opacity:0.30000000000000004"></path><g style="opacity:0.30000000000000004"><path d="M336,155.6a5.89,5.89,0,0,1-6.89,1.3c-2.17-1.13-2.53-3.71-1-5.87a5.21,5.21,0,0,1,6.9-1.31A3.85,3.85,0,0,1,336,155.6Zm-7.17-4.14a3.15,3.15,0,0,0,.88,4.79,4.66,4.66,0,0,0,5.54-1.09,3.14,3.14,0,0,0-.87-4.78A4.22,4.22,0,0,0,328.82,151.46Z"></path></g><path d="M360.59,118.05c-4.42,2.89-10.19,6.58-12.89,8.25s-7.07,4.52-10.63,6.73a81.39,81.39,0,0,0-9.58,6.64c-2.39,2-5.2,4.31-7.55,6.34-1.69,1.46-3.57,2.68-5.25,4.15a1.94,1.94,0,0,0-.86,1.49,1.79,1.79,0,0,0,.9,1.19,10,10,0,0,0,7.55,1.28,17.29,17.29,0,0,0,7-3.47c1.6-1.24,3.14-2.76,5.05-3.5a1.61,1.61,0,0,1-.28,1.27c-.24.38-.55.71-.82,1.07a5.59,5.59,0,0,0-1.13,3,2.86,2.86,0,0,0,.16,1.36,1.51,1.51,0,0,0,1,.91,2.05,2.05,0,0,0,2-1.11,28.58,28.58,0,0,1,3.73-4.05c1.74-1.79,2.74-4,4.1-6.09,1.06-1.61,2.7-2.27,4.4-3.06,2.19-1,4.42-1.95,6.66-2.87,8.63-3.54,14.68-6,14.68-6Z" style="fill:#9e5d55"></path></g></g></svg>