<svg id="Icons" height="512" viewBox="0 0 74 74" width="512" xmlns="http://www.w3.org/2000/svg"><path d="m55.461 66.57a1 1 0 0 1 -.553-1.834c.822-.545 1.614-1.114 2.356-1.694a1 1 0 1 1 1.236 1.576c-.782.611-1.618 1.212-2.484 1.785a.993.993 0 0 1 -.555.167z"/><path d="m37 72a34.974 34.974 0 1 1 32.22-21.309 1 1 0 1 1 -1.84-.783 32.963 32.963 0 1 0 -18.86 18.026 1 1 0 0 1 .7 1.873 34.782 34.782 0 0 1 -12.22 2.193z"/><path d="m62.939 59.99a1 1 0 0 1 -.764-1.643c.574-.684 1.152-1.428 1.765-2.274a1 1 0 0 1 1.62 1.174c-.642.885-1.248 1.666-1.854 2.386a.994.994 0 0 1 -.767.357z"/><path d="m37 64a27 27 0 1 1 27-27 27.03 27.03 0 0 1 -27 27zm0-52a25 25 0 1 0 25 25 25.028 25.028 0 0 0 -25-25z"/><path d="m37.252 53.963h-.06a1 1 0 0 1 -.9-.723l-3.452-12.08-12.077-3.451a1 1 0 0 1 -.113-1.883l27.926-11.711a1 1 0 0 1 1.309 1.309l-11.711 27.926a1 1 0 0 1 -.922.613zm-13.202-17.394 9.873 2.821a1 1 0 0 1 .687.686l2.821 9.874 9.669-23.045z"/></svg>